<svg width="64" height="64" viewBox="0 0 64 64" fill="none" xmlns="http://www.w3.org/2000/svg">
<circle cx="32" cy="32" r="32" fill="#688DBC"/>
<path d="M21.693 46.88C21.2396 46.88 20.8463 46.7333 20.513 46.44C20.1796 46.16 20.013 45.8267 20.013 45.44C20.013 45.04 20.0596 44.7067 20.153 44.44L29.693 20.32H33.293L42.833 44.44C42.9263 44.7067 42.973 45.04 42.973 45.44C42.973 45.8267 42.8063 46.16 42.473 46.44C42.1396 46.7333 41.7463 46.88 41.293 46.88C40.4663 46.88 39.8996 46.4533 39.593 45.6L36.893 38.68H26.093L23.393 45.62C23.033 46.46 22.4663 46.88 21.693 46.88ZM27.453 35.32H35.533L31.453 25.36L27.453 35.32Z" fill="white"/>
</svg>
