<svg width="64" height="64" viewBox="0 0 64 64" fill="none" xmlns="http://www.w3.org/2000/svg">
<circle cx="32" cy="32" r="32" fill="#688DBC"/>
<path d="M29.2342 46C26.1809 46 23.9209 45.2733 22.4542 43.82C21.0009 42.3533 20.2742 40.0933 20.2742 37.04V27.84C20.2742 24.76 21.0009 22.4933 22.4542 21.04C23.9076 19.5733 26.1542 18.8533 29.1942 18.88H34.0342C36.5409 18.88 38.4542 19.4 39.7742 20.44C41.0942 21.4667 41.8609 23.0933 42.0742 25.32C42.1542 25.88 42.0476 26.3067 41.7542 26.6C41.4609 26.8933 41.0342 27.04 40.4742 27.04C39.4609 27.04 38.8742 26.48 38.7142 25.36C38.5809 24.1333 38.1542 23.3067 37.4342 22.88C36.7276 22.4533 35.5942 22.24 34.0342 22.24H29.1942C27.7809 22.2267 26.6676 22.3867 25.8542 22.72C25.0542 23.0533 24.4809 23.6333 24.1342 24.46C23.8009 25.2733 23.6342 26.4 23.6342 27.84V37.04C23.6342 38.4667 23.8009 39.5867 24.1342 40.4C24.4809 41.2133 25.0609 41.7933 25.8742 42.14C26.6876 42.4733 27.8076 42.64 29.2342 42.64H34.0342C35.5942 42.64 36.7276 42.4267 37.4342 42C38.1542 41.56 38.5809 40.7333 38.7142 39.52C38.8742 38.4 39.4609 37.84 40.4742 37.84C41.0342 37.84 41.4609 37.9867 41.7542 38.28C42.0476 38.5733 42.1542 39 42.0742 39.56C41.8609 41.8 41.0942 43.4333 39.7742 44.46C38.4542 45.4867 36.5409 46 34.0342 46H29.2342Z" fill="white"/>
</svg>
