<svg width="30" height="30" viewBox="0 0 30 30" fill="none" xmlns="http://www.w3.org/2000/svg">
<path d="M21.9461 19.5956C19.9314 21.5983 14.875 26.625 14.875 26.625C14.875 26.625 9.69453 21.475 7.80393 19.5956C3.89869 15.7133 3.89869 9.41894 7.80393 5.53669C11.7092 1.65444 18.0408 1.65444 21.9461 5.53669C25.8513 9.41894 25.8513 15.7133 21.9461 19.5956Z" stroke="white" stroke-width="1.5" stroke-linejoin="round"/>
<path d="M18.2083 11.7159C18.2083 13.5234 16.7159 14.9886 14.875 14.9886C13.0341 14.9886 11.5417 13.5234 11.5417 11.7159C11.5417 9.90843 13.0341 8.44318 14.875 8.44318C16.7159 8.44318 18.2083 9.90843 18.2083 11.7159Z" stroke="white" stroke-width="1.5" stroke-linejoin="round"/>
</svg>
