<svg width="64" height="64" viewBox="0 0 64 64" fill="none" xmlns="http://www.w3.org/2000/svg">
<circle cx="32" cy="32" r="32" fill="#688DBC"/>
<path d="M22.8625 46.52C21.7425 46.52 21.1825 45.88 21.1825 44.6V22C21.1825 20.6933 21.7158 20.04 22.7825 20.04C23.9558 20.04 24.5425 20.6933 24.5425 22V30.6H38.4625V22C38.4625 20.6933 39.0225 20.04 40.1425 20.04C41.2625 20.04 41.8225 20.6933 41.8225 22V44.6C41.8225 45.88 41.2625 46.52 40.1425 46.52C39.0225 46.52 38.4625 45.88 38.4625 44.6V33.96H24.5425V44.6C24.5425 45.88 23.9825 46.52 22.8625 46.52Z" fill="white"/>
</svg>
