<svg width="100" height="100" viewBox="0 0 100 100" fill="none" xmlns="http://www.w3.org/2000/svg">
<circle cx="50" cy="50" r="50" fill="#688DBC"/>
<path fill-rule="evenodd" clip-rule="evenodd" d="M67 16C67 15.4477 66.5523 15 66 15C65.4477 15 65 15.4477 65 16V23C65 23.5523 65.4477 24 66 24C66.5523 24 67 23.5523 67 23V16ZM45 29.5C45 29.7761 44.7761 30 44.5 30C44.2239 30 44 29.7761 44 29.5C44 29.2239 44.2239 29 44.5 29C44.7761 29 45 29.2239 45 29.5ZM44.5 28C43.6716 28 43 28.6716 43 29.5C43 30.3284 43.6716 31 44.5 31C45.3284 31 46 30.3284 46 29.5C46 28.6716 45.3284 28 44.5 28ZM29 60C29 59.4477 29.4477 59 30 59H50C50.5523 59 51 59.4477 51 60V84C51 84.5523 50.5523 85 50 85H30C29.4477 85 29 84.5523 29 84V60ZM51.8677 68C51.8677 67.4477 52.3154 67 52.8677 67H64.8677C65.42 67 65.8677 67.4477 65.8677 68V84C65.8677 84.5523 65.42 85 64.8677 85H52.8677C52.3154 85 51.8677 84.5523 51.8677 84C51.8677 83.4477 52.3154 83 52.8677 83H63.8677V69H52.8677C52.3154 69 51.8677 68.5523 51.8677 68ZM35 64.5C35 64.7761 34.7761 65 34.5 65C34.2239 65 34 64.7761 34 64.5C34 64.2239 34.2239 64 34.5 64C34.7761 64 35 64.2239 35 64.5ZM49 61H31V83H49V61ZM34.5 63C33.6716 63 33 63.6716 33 64.5C33 65.3284 33.6716 66 34.5 66C35.3284 66 36 65.3284 36 64.5C36 63.6716 35.3284 63 34.5 63ZM45.5 65C45.7761 65 46 64.7761 46 64.5C46 64.2239 45.7761 64 45.5 64C45.2239 64 45 64.2239 45 64.5C45 64.7761 45.2239 65 45.5 65ZM44 64.5C44 63.6716 44.6716 63 45.5 63C46.3284 63 47 63.6716 47 64.5C47 65.3284 46.3284 66 45.5 66C44.6716 66 44 65.3284 44 64.5ZM23.5 52C23.7761 52 24 51.7761 24 51.5C24 51.2239 23.7761 51 23.5 51C23.2239 51 23 51.2239 23 51.5C23 51.7761 23.2239 52 23.5 52ZM22 51.5C22 50.6716 22.6716 50 23.5 50C24.3284 50 25 50.6716 25 51.5C25 52.3284 24.3284 53 23.5 53C22.6716 53 22 52.3284 22 51.5ZM38.75 75C38.75 74.3096 39.3096 73.75 40 73.75C40.6904 73.75 41.25 74.3096 41.25 75C41.25 75.6904 40.6904 76.25 40 76.25C39.3096 76.25 38.75 75.6904 38.75 75ZM40 72.25C38.4812 72.25 37.25 73.4812 37.25 75C37.25 76.5188 38.4812 77.75 40 77.75C41.5188 77.75 42.75 76.5188 42.75 75C42.75 73.4812 41.5188 72.25 40 72.25ZM40 71C37.7909 71 36 72.7909 36 75C36 77.2091 37.7909 79 40 79C42.2091 79 44 77.2091 44 75C44 72.7909 42.2091 71 40 71ZM34 75C34 71.6863 36.6863 69 40 69C43.3137 69 46 71.6863 46 75C46 78.3137 43.3137 81 40 81C36.6863 81 34 78.3137 34 75ZM21.1716 74.1716C21.9217 73.4214 22.9391 73 24 73C24.5523 73 25 72.5523 25 72C25 71.4477 24.5523 71 24 71C22.4087 71 20.8826 71.6321 19.7574 72.7574C18.6321 73.8826 18 75.4087 18 77C18 78.5913 18.6321 80.1174 19.7574 81.2426C20.8826 82.3679 22.4087 83 24 83C24.5523 83 25 82.5523 25 82C25 81.4477 24.5523 81 24 81C22.9391 81 21.9217 80.5786 21.1716 79.8284C20.4214 79.0783 20 78.0609 20 77C20 75.9391 20.4214 74.9217 21.1716 74.1716ZM42.7963 31.3951C43.1304 31.8349 43.0447 32.4623 42.6049 32.7963C40.8852 34.1026 40 35.8054 40 37.5C40 39.1946 40.8852 40.8974 42.6049 42.2037C43.0447 42.5377 43.1304 43.1651 42.7963 43.6049C42.4623 44.0447 41.8349 44.1304 41.3951 43.7963C39.273 42.1844 38 39.9307 38 37.5C38 35.0693 39.273 32.8156 41.3951 31.2037C41.8349 30.8696 42.4623 30.9553 42.7963 31.3951ZM36.2042 49.6049C36.5382 50.0447 37.1655 50.1304 37.6053 49.7963C38.0452 49.4623 38.1309 48.8349 37.7968 48.3951C36.1849 46.273 33.9312 45 31.5005 45C29.0698 45 26.8161 46.273 25.2042 48.3951C24.8701 48.8349 24.9558 49.4623 25.3956 49.7963C25.8354 50.1304 26.4628 50.0447 26.7968 49.6049C28.103 47.8852 29.8058 47 31.5005 47C33.1951 47 34.8979 47.8852 36.2042 49.6049ZM25 76C24.7348 76 24.4804 76.1054 24.2929 76.2929C24.1054 76.4804 24 76.7348 24 77C24 77.2652 24.1054 77.5196 24.2929 77.7071C24.4804 77.8946 24.7348 78 25 78C25.5523 78 26 78.4477 26 79C26 79.5523 25.5523 80 25 80C24.2044 80 23.4413 79.6839 22.8787 79.1213C22.3161 78.5587 22 77.7957 22 77C22 76.2043 22.3161 75.4413 22.8787 74.8787C23.4413 74.3161 24.2043 74 25 74C25.5523 74 26 74.4477 26 75C26 75.5523 25.5523 76 25 76ZM71.0315 73.0018C71.5427 72.9857 72.0524 73.0755 72.5308 73.2666C73.0092 73.4577 73.4476 73.7467 73.8192 74.1181C74.1908 74.4895 74.4879 74.9358 74.6913 75.4312C74.8948 75.9266 75 76.4602 75 77C75 77.5398 74.8948 78.0734 74.6913 78.5688C74.4879 79.0642 74.1908 79.5105 73.8192 79.8819C73.4476 80.2533 73.0092 80.5423 72.5308 80.7334C72.0524 80.9245 71.5427 81.0143 71.0315 80.9982C70.4795 80.9808 70.0179 81.4141 70.0005 81.9661C69.9831 82.5182 70.4165 82.9798 70.9685 82.9972C71.756 83.022 72.5396 82.8835 73.2726 82.5907C74.0056 82.298 74.672 81.8573 75.2331 81.2965C75.7941 80.7357 76.2385 80.0662 76.5414 79.3286C76.8443 78.5909 77 77.7992 77 77C77 76.2008 76.8443 75.4091 76.5414 74.6715C76.2385 73.9338 75.7941 73.2643 75.2331 72.7035C74.672 72.1427 74.0056 71.702 73.2726 71.4093C72.5396 71.1165 71.756 70.978 70.9685 71.0028C70.4165 71.0202 69.9831 71.4818 70.0005 72.0339C70.0179 72.5859 70.4795 73.0192 71.0315 73.0018ZM69.0009 74.9588C69.0236 74.407 69.4894 73.9781 70.0412 74.0009C70.824 74.0331 71.572 74.3538 72.1264 74.9082C72.6821 75.4639 73 76.2125 73 77C73 77.7875 72.6821 78.5361 72.1264 79.0918C71.572 79.6462 70.824 79.9669 70.0412 79.9992C69.4894 80.0219 69.0236 79.593 69.0009 79.0412C68.9781 78.4894 69.407 78.0236 69.9588 78.0009C70.2524 77.9887 70.5213 77.8685 70.7122 77.6776C70.9018 77.4881 71 77.2445 71 77C71 76.7555 70.9018 76.512 70.7122 76.3224C70.5213 76.1315 70.2524 76.0113 69.9588 75.9991C69.407 75.9764 68.9781 75.5106 69.0009 74.9588ZM62 71.5C62 71.7761 61.7761 72 61.5 72C61.2239 72 61 71.7761 61 71.5C61 71.2239 61.2239 71 61.5 71C61.7761 71 62 71.2239 62 71.5ZM61.5 70C60.6716 70 60 70.6716 60 71.5C60 72.3284 60.6716 73 61.5 73C62.3284 73 63 72.3284 63 71.5C63 70.6716 62.3284 70 61.5 70ZM58 76C56.8954 76 56 76.8954 56 78C56 79.1046 56.8954 80 58 80C59.1046 80 60 79.1046 60 78C60 76.8954 59.1046 76 58 76ZM54 78C54 75.7909 55.7909 74 58 74C60.2091 74 62 75.7909 62 78C62 80.2091 60.2091 82 58 82C55.7909 82 54 80.2091 54 78ZM66 38C66.5523 38 67 38.4477 67 39V57C67 57.5523 66.5523 58 66 58C65.4477 58 65 57.5523 65 57V39C65 38.4477 65.4477 38 66 38ZM28.6459 35.2366C28.2243 34.8799 27.5934 34.9325 27.2366 35.3541C26.8799 35.7757 26.9325 36.4066 27.3541 36.7634L40.3541 47.7634C40.7757 48.1201 41.4066 48.0676 41.7634 47.6459C42.1201 47.2243 42.0675 46.5934 41.6459 46.2366L28.6459 35.2366ZM60.7809 36.3753C61.1259 36.8066 61.056 37.4359 60.6247 37.7809L55.6247 41.7809C55.1934 42.1259 54.5641 42.056 54.2191 41.6247C53.8741 41.1934 53.944 40.5641 54.3753 40.2191L59.3753 36.2191C59.8066 35.8741 60.4359 35.944 60.7809 36.3753ZM77.6247 21.7809C78.056 21.4359 78.1259 20.8066 77.7809 20.3753C77.4359 19.944 76.8066 19.8741 76.3753 20.2191L71.3753 24.2191C70.944 24.5641 70.8741 25.1934 71.2191 25.6247C71.5641 26.056 72.1934 26.1259 72.6247 25.7809L77.6247 21.7809ZM73 31C73 30.4477 73.4477 30 74 30H81C81.5523 30 82 30.4477 82 31C82 31.5523 81.5523 32 81 32H74C73.4477 32 73 31.5523 73 31ZM50 30C49.4477 30 49 30.4477 49 31C49 31.5523 49.4477 32 50 32H57C57.5523 32 58 31.5523 58 31C58 30.4477 57.5523 30 57 30H50ZM54.2191 20.3753C54.5641 19.944 55.1934 19.8741 55.6247 20.2191L60.6247 24.2191C61.056 24.5641 61.1259 25.1934 60.7809 25.6247C60.4359 26.056 59.8066 26.1259 59.3753 25.7809L54.3753 21.7809C53.944 21.4359 53.8741 20.8066 54.2191 20.3753ZM72.6247 36.2191C72.1934 35.8741 71.5641 35.944 71.2191 36.3753C70.8741 36.8066 70.944 37.4359 71.3753 37.7809L76.3753 41.7809C76.8066 42.1259 77.4359 42.056 77.7809 41.6247C78.1259 41.1934 78.056 40.5641 77.6247 40.2191L72.6247 36.2191ZM62.3076 26.2007C62.6102 25.9732 63.0153 25.9361 63.3542 26.1048L65.9996 27.4219L68.6404 26.1051C68.979 25.9362 69.384 25.973 69.6867 26.2C69.9894 26.4271 70.138 26.8056 70.0707 27.1779L69.5794 29.8949L71.6774 31.8266C71.9622 32.0888 72.07 32.492 71.9542 32.8614C71.8383 33.2309 71.5196 33.5002 71.136 33.5529L68.1915 33.9573L66.8869 36.4619C66.7147 36.7926 66.3728 37 66 37C65.6272 37 65.2853 36.7926 65.1131 36.4619L63.8085 33.9573L60.864 33.5529C60.4804 33.5002 60.1617 33.2309 60.0458 32.8614C59.93 32.492 60.0378 32.0888 60.3226 31.8266L62.4199 29.8955L61.9247 27.1793C61.8568 26.8069 62.005 26.4281 62.3076 26.2007ZM64.2504 28.7852L64.4862 30.0787C64.5477 30.4161 64.4321 30.7614 64.1798 30.9937L63.2387 31.8602L64.5927 32.0462C64.9139 32.0903 65.1938 32.2874 65.3436 32.5749L66 33.8352L66.6564 32.5749C66.8062 32.2874 67.0861 32.0903 67.4073 32.0462L68.7613 31.8602L67.8202 30.9937C67.5683 30.7618 67.4526 30.4171 67.5135 30.0801L67.7477 28.7851L66.4463 29.4341C66.1654 29.5741 65.8352 29.5742 65.5543 29.4344L64.2504 28.7852ZM22.5077 28.3435C22.2565 28.2047 21.948 28.2215 21.7133 28.3867C21.4786 28.552 21.3588 28.8367 21.4047 29.1201L21.6969 30.9216L20.4632 32.1859C20.2669 32.3871 20.1996 32.681 20.2887 32.9476C20.3778 33.2141 20.6085 33.4084 20.8863 33.451L22.562 33.7081L23.3216 35.3197C23.4455 35.5826 23.7101 35.7503 24.0007 35.75C24.2913 35.7497 24.5556 35.5816 24.679 35.3185L25.4343 33.7081L27.1135 33.4511C27.3915 33.4085 27.6224 33.214 27.7114 32.9471C27.8005 32.6803 27.7327 32.3861 27.536 32.1851L26.2994 30.9216L26.595 29.1216C26.6416 28.838 26.5221 28.5528 26.2873 28.3872C26.0525 28.2215 25.7438 28.2046 25.4923 28.3435L24 29.168L22.5077 28.3435ZM23.238 31.0548L23.1322 30.4023L23.6373 30.6813C23.863 30.806 24.137 30.806 24.3627 30.6813L24.8642 30.4042L24.7576 31.0532C24.7189 31.2888 24.7947 31.5288 24.9617 31.6994L25.4414 32.1895L24.8117 32.2859C24.5645 32.3237 24.3524 32.4823 24.2462 32.7088L23.9983 33.2373L23.7487 32.7075C23.6423 32.4818 23.4306 32.3238 23.1839 32.2859L22.5555 32.1895L23.0345 31.6986C23.2006 31.5284 23.2761 31.2895 23.238 31.0548Z" fill="white"/>
</svg>
