<svg width="42" height="42" viewBox="0 0 42 42" fill="none" xmlns="http://www.w3.org/2000/svg">
<path d="M38.2516 17.2329C39.9724 19.0818 41 21.4202 41 23.963C41 25.9073 40.1338 27.9422 38.8285 29.6296C36.1706 33.0655 34.8412 34.7839 34.6155 35.2619C34.2393 36.0585 34.3398 35.7294 34.2068 36.6002C34.1269 37.1229 34.1786 37.9086 34.2819 39.48L34.3818 41C34.3818 41 28.9659 34.8047 28.2727 34.8047C25.7777 34.8047 23.4503 34.1931 21.4859 33.1363M31.303 13.7273C31.303 20.7564 24.5195 26.4545 16.1515 26.4545C15.3264 26.4545 8.87879 33.7273 8.87879 33.7273L9.06796 30.8897C9.18765 29.0943 9.2475 28.1966 9.14368 27.614C8.9886 26.7437 9.04882 26.9149 8.62482 26.1392C8.341 25.6199 6.99765 24.1579 4.31106 21.234C2.3605 19.1111 1 16.349 1 13.7273C1 6.69819 7.78356 1 16.1515 1C24.5195 1 31.303 6.69819 31.303 13.7273Z" stroke="white" stroke-width="1.5" stroke-linecap="round" stroke-linejoin="round"/>
</svg>
