<svg width="100" height="100" viewBox="0 0 100 100" fill="none" xmlns="http://www.w3.org/2000/svg">
<circle cx="50" cy="50" r="50" fill="#688DBC"/>
<path fill-rule="evenodd" clip-rule="evenodd" d="M55.3479 18.6379C54.5347 17.8794 53.0247 17.5982 51.5988 18.9292L50.9168 19.5657L50.2345 18.9297C48.8274 17.6178 47.3737 17.8954 46.6106 18.6065C46.2159 18.9742 45.9943 19.4598 46.0001 19.9711C46.0058 20.4714 46.232 21.1143 46.9566 21.7889L46.957 21.7893L51.0789 25.6319L55.0246 21.9427L55.0275 21.94C55.7676 21.2535 55.9978 20.5937 56 20.0735C56.0022 19.5403 55.7663 19.0282 55.3479 18.6379ZM56.3892 23.4049C57.4645 22.4068 57.9951 21.2434 58 20.082C58.0048 18.933 57.4936 17.9043 56.712 17.1753C55.2865 15.8457 52.9609 15.4916 50.9159 16.9146C48.9129 15.5241 46.6432 15.8424 45.2472 17.1432C44.4815 17.8567 43.9873 18.8664 44.0002 19.9939C44.0132 21.1322 44.5402 22.2716 45.5933 23.2522C45.5933 23.2523 45.5934 23.2523 45.5934 23.2524C45.5935 23.2525 45.5936 23.2526 45.5937 23.2527L50.398 27.7315L51.0809 28.3681L51.7629 27.7305L56.3876 23.4063C56.3881 23.4059 56.3886 23.4054 56.3892 23.4049ZM40.8486 31.1157C40.3734 31.4765 40.1369 31.8926 40.0453 32.367C39.9481 32.8709 40.0044 33.5033 40.242 34.2696C40.7218 35.8173 41.8504 37.6315 43.2279 39.4626C44.5153 41.1738 45.9582 42.8208 47.1573 44.1895C47.2296 44.272 47.301 44.3536 47.3715 44.434C47.9837 45.1333 48.5331 45.7648 48.9362 46.273C49.1373 46.5265 49.3179 46.7691 49.4564 46.9872C49.5694 47.1652 49.7476 47.465 49.7937 47.7978C49.8693 48.3448 49.4872 48.8497 48.9401 48.9254C48.4245 48.9967 47.9464 48.6613 47.8298 48.1644C47.8201 48.1459 47.8012 48.1116 47.768 48.0593C47.6845 47.9277 47.5535 47.7481 47.3693 47.516C47.0021 47.053 46.4865 46.4594 45.8667 45.7515C45.7937 45.6681 45.7194 45.5833 45.6439 45.4971C44.4521 44.1368 42.9637 42.4381 41.6297 40.665C40.2238 38.7962 38.9183 36.7542 38.3317 34.8619C38.036 33.9082 37.9009 32.9246 38.0815 31.9882C38.2677 31.0233 38.7774 30.1754 39.6438 29.5192L39.6484 29.5158L39.6484 29.5158C40.9283 28.5579 42.4995 29.0793 43.7877 29.8603C45.1508 30.6867 46.6771 32.0773 48.263 33.7654C51.4494 37.157 55.0891 41.9822 58.4448 46.6267C59.5761 48.1923 60.5799 49.5181 61.4714 50.6957C61.7251 51.0308 61.9697 51.3539 62.2056 51.6671C63.2632 53.0715 64.1545 54.2888 64.8641 55.4616C66.3204 57.8682 67 60.0714 67 63.395C67 65.5878 66.2447 67.8678 65.1444 70.018C64.0393 72.1777 62.5527 74.2717 61.0094 76.1117C59.4649 77.9531 57.8452 79.5619 56.4569 80.7497C55.7635 81.343 55.1168 81.8407 54.5571 82.2122C54.0308 82.5616 53.48 82.8694 53.0027 82.976C52.4637 83.0963 51.9292 82.7569 51.8088 82.2179C51.6885 81.6789 52.0279 81.1444 52.5669 81.024C52.6569 81.0039 52.9444 80.8822 53.451 80.5459C53.9242 80.2318 54.505 79.7876 55.1567 79.23C56.459 78.1158 58.0014 76.5858 59.477 74.8264C60.9539 73.0657 62.3457 71.097 63.3639 69.107C64.387 67.1076 65 65.1508 65 63.395C65 60.4332 64.4186 58.5885 63.153 56.497C62.5017 55.4207 61.6668 54.2762 60.608 52.8703C60.3767 52.5632 60.1352 52.2442 59.8835 51.9117C58.9905 50.7323 57.9694 49.3836 56.8238 47.7982L56.8237 47.7981C53.4679 43.1534 49.8945 38.4228 46.8054 35.1348C45.2537 33.4831 43.8767 32.253 42.7509 31.5706C41.5539 30.8449 41.05 30.9664 40.8486 31.1157ZM55.9865 39.049L55.9866 39.0487L55.9866 39.0486L55.9872 39.0451L55.9903 39.027C55.9932 39.0101 55.9979 38.9837 56.0044 38.9487C56.0173 38.8785 56.0372 38.7738 56.0647 38.6402C56.1196 38.3727 56.2042 37.9915 56.3215 37.5432C56.558 36.6393 56.9192 35.4954 57.4227 34.467C57.9397 33.411 58.5388 32.619 59.1793 32.2442C59.4793 32.0686 59.7852 31.9858 60.1184 32.002C60.457 32.0185 60.8886 32.1408 61.4261 32.4782C61.6542 32.6279 61.8257 32.8421 61.9194 33.0883C62.0137 33.3361 62.0255 33.606 61.9535 33.8603L61.9535 33.8602L61.9514 33.8678C60.8644 37.8273 60.4256 41.1093 60.2594 43.4115C60.1763 44.5627 60.1613 45.4692 60.1676 46.0934C60.1707 46.4055 60.1791 46.6471 60.187 46.8135C60.1909 46.8966 60.1947 46.961 60.1977 47.006L60.2013 47.0589L60.2025 47.0743L60.2029 47.0792L60.203 47.0809L60.2031 47.0816C60.2031 47.0819 60.2031 47.0822 61.1997 47L60.2031 47.0822C60.2485 47.6326 60.7315 48.042 61.282 47.9966C61.8322 47.9512 62.2415 47.4685 62.1964 46.9182L62.1964 46.9178L62.1959 46.9115L62.1934 46.8759C62.1913 46.8426 62.1881 46.79 62.1848 46.7189C62.178 46.5766 62.1703 46.3599 62.1675 46.0734C62.1617 45.5005 62.1753 44.6488 62.2542 43.5555C62.412 41.3695 62.8311 38.2191 63.8791 34.4007C64.067 33.7335 64.0351 33.0247 63.7885 32.3768C63.5415 31.7278 63.0927 31.1757 62.5101 30.7974L62.5101 30.7973L62.4985 30.79C61.7335 30.3081 60.9704 30.0411 60.2156 30.0044C59.4538 29.9673 58.7668 30.1682 58.1691 30.518C57.014 31.1941 56.1981 32.4199 55.6264 33.5875C55.0413 34.7825 54.6402 36.0677 54.3866 37.037C54.2588 37.5253 54.1664 37.9417 54.1056 38.2377C54.0751 38.3859 54.0525 38.5043 54.0373 38.587C54.0297 38.6283 54.024 38.6607 54.02 38.6835L54.0154 38.7103L54.0141 38.7181L54.0137 38.7206L54.0135 38.7215C54.0135 38.7218 54.0134 38.7221 55 38.8854L54.0134 38.7221C53.9232 39.267 54.2919 39.7818 54.8368 39.8719C55.3815 39.9621 55.8962 39.5936 55.9865 39.049ZM44.2455 54.577C44.2449 54.5792 44.2443 54.5814 44.2437 54.5836L44.2435 54.5842C44.2436 54.5841 44.2438 54.5834 44.2441 54.5823L44.2448 54.5797L44.2452 54.5779L44.2455 54.577ZM57.2646 60.8587C57.2391 60.8319 57.2043 60.7925 57.1602 60.7369C56.9774 60.5064 56.7485 60.1417 56.4677 59.6421C56.195 59.157 55.8974 58.5885 55.5684 57.9602L55.5552 57.9349C55.2238 57.3019 54.864 56.6151 54.4821 55.9266C53.7245 54.5606 52.8484 53.1277 51.8716 52.0273C50.9226 50.9581 49.7004 50 48.2332 50C45.8769 50 44.3721 50.9748 43.4716 52.0023C43.0323 52.5036 42.7477 53.0037 42.5718 53.3808C42.4834 53.5702 42.4211 53.7314 42.3796 53.8502C42.3588 53.9096 42.3432 53.9588 42.3319 53.9959C42.3263 54.0144 42.3218 54.03 42.3183 54.0424L42.3139 54.0585L42.3122 54.0647L42.3115 54.0674L42.3112 54.0686C42.311 54.0692 42.3109 54.0697 43.2783 54.3228L42.3109 54.0697C42.264 54.2489 42.2688 54.4294 42.3161 54.5955C41.3231 54.6968 40.5035 54.9816 39.8364 55.403C38.992 55.9366 38.4565 56.6484 38.1227 57.3403C37.7923 58.0249 37.6554 58.6963 37.5987 59.1863C37.5751 59.3897 37.5648 59.5667 37.561 59.7071C37.3286 59.6897 37.0918 59.6944 36.8515 59.725C35.995 59.8339 35.2077 60.2578 34.5057 60.9657C33.0573 62.4266 32.8 64.2719 33.1267 66.0499C33.4476 67.7964 34.3401 69.57 35.3271 71.1156C36.3225 72.6744 37.4602 74.0721 38.3427 75.075C38.7854 75.578 39.1671 75.9855 39.4395 76.2684C39.5757 76.4099 39.6848 76.5205 39.7606 76.5965C39.7985 76.6345 39.8282 76.6638 39.8488 76.6841L39.8728 76.7077L39.8795 76.7143L39.8815 76.7163L39.8822 76.7169C39.8824 76.7172 39.8826 76.7174 40.5793 76L39.8826 76.7174C40.2788 77.1021 40.9119 77.0929 41.2967 76.6967C41.6814 76.3006 41.6722 75.6676 41.2763 75.2828M41.276 75.2826L41.2756 75.2822L41.2715 75.2782L41.253 75.26C41.2361 75.2434 41.2104 75.2178 41.1764 75.1838C41.1084 75.1157 41.0077 75.0136 40.8803 74.8813C40.6254 74.6165 40.2642 74.2311 39.8441 73.7537C39.0011 72.7957 37.9341 71.4821 37.0127 70.0392C36.0829 68.5831 35.3466 67.0646 35.0938 65.6885C34.8467 64.344 35.0708 63.2364 35.926 62.3739C36.3759 61.9202 36.7703 61.7514 37.104 61.7089C37.4474 61.6652 37.8432 61.7408 38.3108 61.9788C39.285 62.4746 40.3291 63.5488 41.3607 64.8776C42.1171 65.852 42.8037 66.8766 43.4159 67.7901C43.6288 68.1078 43.8327 68.4121 44.0275 68.6962C44.3876 69.2216 44.7416 69.7152 45.0543 70.0481C45.1997 70.2029 45.4155 70.4111 45.685 70.5395C45.8292 70.6082 46.0502 70.6839 46.3185 70.6639C46.6133 70.6419 46.8699 70.5112 47.0588 70.3199C47.4467 69.9268 47.4426 69.2936 47.0495 68.9057C46.8842 68.7425 46.6763 68.6487 46.4621 68.624C46.2729 68.4106 46.0147 68.058 45.6771 67.5655C45.5033 67.3119 45.3134 67.0284 45.1097 66.7244C44.4903 65.8 43.7441 64.6863 42.9405 63.6512C41.9558 62.3828 40.7836 61.0929 39.4982 60.3488C39.547 60.2201 39.5698 60.0793 39.5606 59.9331C39.5607 59.9339 39.5607 59.934 39.5606 59.9333L39.5606 59.9328C39.5606 59.9329 39.5606 59.933 39.5606 59.9331C39.5606 59.9317 39.5605 59.9303 39.5604 59.9289L39.5604 59.9298L39.5605 59.9313L39.5606 59.9328L39.5599 59.9145C39.5593 59.895 39.5587 59.8613 39.5592 59.8155C39.5602 59.7235 39.5659 59.5851 39.5854 59.4164C39.6251 59.0739 39.7186 58.635 39.9239 58.2095C40.1258 57.7912 40.4314 57.3929 40.9047 57.0938C41.3775 56.7951 42.0821 56.5546 43.1481 56.5546C43.9791 56.5546 44.8611 57.0273 45.7977 57.9698C46.7228 58.9008 47.5764 60.1656 48.3453 61.465C48.7267 62.1096 49.0798 62.7496 49.4067 63.3481C49.4565 63.4392 49.5058 63.5297 49.5547 63.6192C49.8229 64.1112 50.0763 64.5759 50.3053 64.9695C50.5654 65.4165 50.8412 65.8565 51.1157 66.1556C51.2424 66.2936 51.4649 66.5113 51.7777 66.6234C51.9531 66.6862 52.1798 66.7238 52.4306 66.6714C52.6845 66.6183 52.8844 66.4894 53.0287 66.3459C53.4202 65.9564 53.4218 65.3232 53.0323 64.9317C52.8729 64.7715 52.6727 64.6766 52.4649 64.647C52.3578 64.4989 52.2156 64.2759 52.034 63.9637C51.8203 63.5963 51.5827 63.1608 51.3137 62.6675C51.2642 62.5767 51.2136 62.484 51.162 62.3894C50.8333 61.7876 50.4664 61.1223 50.0665 60.4465C49.2729 59.1053 48.3188 57.6696 47.2164 56.5601C46.3736 55.712 45.367 54.9775 44.2097 54.6871C44.2228 54.6536 44.2341 54.6191 44.2437 54.5836L44.2462 54.5751C44.2497 54.5635 44.2567 54.5413 44.2677 54.5099C44.2897 54.447 44.3272 54.3485 44.3842 54.2264C44.4989 53.9806 44.687 53.6499 44.9757 53.3205C45.5313 52.6866 46.504 52 48.2332 52C48.8089 52 49.5236 52.3948 50.3759 53.355C51.2004 54.2839 51.9901 55.5569 52.7331 56.8966C53.1016 57.561 53.4507 58.2272 53.7833 58.8625L53.8053 58.9045C54.1272 59.5194 54.4368 60.1107 54.7242 60.6221C55.0138 61.1373 55.3065 61.6181 55.5929 61.9794C55.7357 62.1594 55.9055 62.3469 56.1023 62.497C56.2896 62.6398 56.5988 62.8232 57 62.8232C57.5523 62.8232 58 62.3755 58 61.8232C58 61.3626 57.6885 60.9747 57.2646 60.8587C57.2903 60.8856 57.3066 60.8999 57.3135 60.9053C57.314 60.9058 57.3145 60.9061 57.3149 60.9064C57.3185 60.9092 57.318 60.9084 57.3135 60.9053M52.6091 64.8239C52.5892 64.8078 52.5366 64.7708 52.4523 64.7406C52.3554 64.7059 52.2027 64.6758 52.0214 64.7137C51.837 64.7522 51.702 64.8446 51.6181 64.9281C51.8494 64.698 52.165 64.6044 52.4649 64.647C52.5133 64.7139 52.5546 64.7655 52.5892 64.8032C52.5977 64.8125 52.6043 64.8193 52.6091 64.8239ZM52.6091 64.8239C52.6151 64.8288 52.6182 64.8317 52.6182 64.832C52.6182 64.8323 52.6152 64.8299 52.6091 64.8239ZM44.2435 54.5842L44.2435 54.5842ZM35.1922 73.6586C35.5421 73.2595 35.5197 72.6517 35.1334 72.2797C34.7356 71.8966 34.1025 71.9085 33.7194 72.3063L34.4349 72.9954C33.7194 72.3063 33.7184 72.3073 33.7175 72.3083L33.7155 72.3104L33.7114 72.3148L33.7024 72.3244C33.6961 72.3312 33.6892 72.3388 33.6819 72.3472C33.6671 72.364 33.6502 72.384 33.6316 72.4073C33.5944 72.4539 33.5504 72.5137 33.5032 72.5872C33.4085 72.7346 33.3018 72.9362 33.2109 73.1957C33.027 73.7211 32.9206 74.4487 33.0725 75.3948C33.3723 77.2629 34.6692 79.9425 38.2795 83.6935C38.6625 84.0914 39.2955 84.1035 39.6935 83.7205C40.0914 83.3375 40.1035 82.7045 39.7205 82.3065C36.2374 78.6877 35.2542 76.3673 35.0472 75.0778C34.9457 74.4452 35.0292 74.0546 35.0986 73.8565C35.1343 73.7543 35.17 73.6928 35.1862 73.6676C35.1887 73.6638 35.1907 73.6608 35.1922 73.6586Z" fill="white"/>
</svg>
