<svg width="100" height="100" viewBox="0 0 100 100" fill="none" xmlns="http://www.w3.org/2000/svg">
<circle cx="50" cy="50" r="50" fill="#688DBC"/>
<path fill-rule="evenodd" clip-rule="evenodd" d="M46 15C45.6411 15 45.2926 15.1207 45.0106 15.3427C44.7298 15.5637 44.5311 15.8724 44.4462 16.2193L44.4451 16.2236L43.5313 19.8873C43.3091 20.7455 42.8632 21.5293 42.2392 22.1586C41.6143 22.7888 40.8331 23.2415 39.9759 23.4702C39.1186 23.6989 38.216 23.6954 37.3604 23.4602C36.5053 23.2251 35.7279 22.7669 35.1079 22.1323L35.1078 22.1323L35.1071 22.1315L32.4848 19.4408C32.2385 19.1819 31.9124 19.0128 31.5586 18.9608C31.2008 18.9082 30.8358 18.9784 30.5231 19.1598C30.2103 19.3413 29.9684 19.6233 29.8365 19.9599C29.706 20.2927 29.6908 20.6594 29.793 21.0017L30.8287 24.6282C31.0731 25.4855 31.0841 26.3926 30.8604 27.2556C30.6366 28.1185 30.1864 28.9059 29.5564 29.5362C28.9264 30.1665 28.1395 30.6168 27.2771 30.8406C26.4148 31.0643 25.5083 31.0534 24.6516 30.8089L24.6497 30.8083L20.9916 29.7723C20.6497 29.6705 20.2833 29.6858 19.9509 29.8162C19.6143 29.9483 19.3324 30.1905 19.1511 30.5032C18.9698 30.8159 18.8997 31.1808 18.9523 31.5384C19.0042 31.8921 19.1731 32.2181 19.4318 32.4646L22.1214 35.0881L22.1216 35.0883C22.7562 35.7087 23.2145 36.4867 23.4497 37.3427C23.6848 38.1988 23.6882 39.1021 23.4596 39.96C23.2309 40.8179 22.7784 41.5995 22.1485 42.2247C21.5185 42.8499 20.7338 43.2963 19.8747 43.5181L16.2146 44.4605C15.8693 44.5462 15.5623 44.7446 15.3423 45.0243C15.1205 45.3063 15 45.6547 15 46.0135C15 46.3722 15.1205 46.7206 15.3423 47.0027C15.5632 47.2835 15.8717 47.4824 16.2187 47.5675L16.2232 47.5686L19.8815 48.4819L19.8851 48.4828C20.7427 48.705 21.5261 49.151 22.1552 49.7753C22.7851 50.4005 23.2377 51.1821 23.4663 52.04C23.695 52.8979 23.6916 53.8011 23.4564 54.6573C23.2212 55.5134 22.7628 56.2915 22.1282 56.9119L19.4386 59.5354C19.1798 59.7819 19.011 60.1079 18.959 60.4616C18.9065 60.8192 18.9765 61.1841 19.1578 61.4968C19.3391 61.8095 19.621 62.0517 19.9577 62.1838C20.2906 62.3144 20.6575 62.3296 20.9999 62.2272L24.6247 61.1911C25.4814 60.9466 26.3878 60.9357 27.2502 61.1595C28.1125 61.3832 28.8994 61.8335 29.5295 62.4638C30.1595 63.0941 30.6097 63.8815 30.8334 64.7444C31.0571 65.6074 31.0462 66.5145 30.8017 67.3718L30.8017 67.3719L29.7647 71.0099L29.7642 71.0117C29.6656 71.3553 29.6848 71.722 29.819 72.0534C29.9533 72.3855 30.1952 72.6628 30.506 72.8411C30.8167 73.0193 31.1784 73.0881 31.5329 73.0363C31.8848 72.985 32.2094 72.8178 32.4556 72.5615L35.0801 69.8685L35.5899 67.0695L35.5905 67.0692L35.0809 69.8677C35.7009 69.2331 36.4783 68.7749 37.3335 68.5398C38.189 68.3046 39.0916 68.3011 39.9489 68.5298C40.8062 68.7585 41.5873 69.2112 42.2123 69.8414C42.8363 70.4707 43.2822 71.2546 43.5043 72.1128L43.5053 72.1165L44.4182 75.7764L44.4192 75.7806C44.5041 76.1276 44.7028 76.4363 44.9837 76.6573C45.2657 76.8793 45.6141 77 45.973 77C46.332 77 46.6804 76.8793 46.9624 76.6573C47.2433 76.4363 47.4419 76.1276 47.5269 75.7806L47.5279 75.7764L48.4428 72.1087L48.4437 72.1049C48.626 71.3618 48.978 70.6711 49.4722 70.0872C49.9203 69.5578 50.4741 69.1292 51.0972 68.8284C52.0092 77.3574 59.2289 84 68 84C77.3888 84 85 76.3888 85 67C85 58.0703 78.1151 50.7487 69.3641 50.0539C69.4399 50.0021 69.515 49.952 69.5907 49.9029C70.1963 49.5096 70.8455 49.1701 72.2245 48.4555L75.7768 47.5686L75.7807 47.5676C76.1279 47.4826 76.4367 47.2837 76.6577 47.0027C76.8795 46.7206 77 46.3722 77 46.0135C77 45.6547 76.8795 45.3064 76.6577 45.0243C76.4367 44.7433 76.1279 44.5444 75.7807 44.4593L75.7768 44.4584L72.1185 43.5451L72.115 43.5442C71.2573 43.322 70.4739 42.876 69.8448 42.2516C69.2149 41.6264 68.7624 40.8448 68.5337 39.987C68.305 39.1291 68.3084 38.2258 68.5436 37.3697C68.7788 36.5136 69.2372 35.7355 69.8719 35.115L72.5633 32.4897C72.8197 32.2433 72.9868 31.9186 73.0381 31.5667C73.0898 31.2123 73.0212 30.8508 72.8431 30.54C72.665 30.2293 72.3877 29.9872 72.0557 29.8527C71.7242 29.7184 71.3573 29.6991 71.0136 29.7978L71.0118 29.7983L67.3754 30.8358L67.3753 30.8358C66.5186 31.0803 65.6122 31.0913 64.7498 30.8675C63.8875 30.6438 63.1006 30.1935 62.4705 29.5632C61.8405 28.9328 61.3903 28.1455 61.1666 27.2825C60.9429 26.4197 60.9538 25.5128 61.1982 24.6556L61.1983 24.6552L62.234 21.0286C62.3362 20.6864 62.3209 20.3196 62.1905 19.9869C62.0586 19.6503 61.8166 19.3683 61.5039 19.1868C61.1911 19.0053 60.8261 18.9352 60.4683 18.9878C60.1145 19.0398 59.7886 19.2088 59.5423 19.4677L56.9199 22.1585L56.9192 22.1592L56.9191 22.1593C56.2991 22.7938 55.5217 23.2521 54.6665 23.4872C53.811 23.7224 52.9084 23.7258 52.0511 23.4971C51.1938 23.2684 50.4127 22.8158 49.7877 22.1856C49.1631 21.5557 48.717 20.771 48.4951 19.9118L48.4947 19.9105L47.5531 16.2163C47.4677 15.8706 47.2694 15.5631 46.9894 15.3427C46.7074 15.1207 46.3589 15 46 15ZM43.4814 23.7401L40.8423 38.2315C41.1985 38.0824 41.5896 38 42 38C43.6569 38 45 39.3431 45 41C45 42.6569 43.6569 44 42 44C41.2027 44 40.4781 43.689 39.9408 43.1817L35.5905 67.0692C35.9782 66.8801 36.3841 66.7266 36.8033 66.6113C38.0009 66.2821 39.2644 66.2773 40.4645 66.5974C41.6645 66.9176 42.7578 67.5511 43.6324 68.4332C44.507 69.3152 45.1315 70.4139 45.4419 71.6168L45.4439 71.6246L45.4438 71.6246L45.973 73.7463L46.5013 71.6284L46.5016 71.6271C46.7576 70.5842 47.2519 69.6149 47.9455 68.7952C48.6395 67.9753 49.5141 67.3274 50.5007 66.9028C50.664 66.8325 50.8358 66.8091 51.0009 66.8266C51.0871 58.1912 57.612 51.0972 66.0043 50.1159C67.1582 49.1928 67.805 48.6778 68.5014 48.2255C69.2138 47.7629 69.9712 47.3705 71.3546 46.6537L71.4084 46.6258C71.4776 46.5899 71.5507 46.5623 71.6263 46.5434L73.7489 46.0135L71.6263 45.4836L71.6184 45.4816L71.6185 45.4816C70.4159 45.171 69.3176 44.5462 68.4359 43.6712C67.5543 42.7962 66.9211 41.7024 66.6012 40.5021C66.2812 39.3017 66.286 38.0379 66.615 36.84C66.9441 35.6421 67.5855 34.5532 68.4738 33.6849L68.4746 33.6841L70.0425 32.1547L67.9242 32.7591L67.9241 32.7591C66.7244 33.1014 65.4551 33.1167 64.2475 32.8034C63.04 32.4901 61.9381 31.8595 61.056 30.977C60.1739 30.0946 59.5437 28.9923 59.2306 27.7844C58.9175 26.5765 58.9328 25.3068 59.2749 24.1068L59.2751 24.1064L59.8806 21.9861L58.3514 23.5552L58.3507 23.5559C57.4828 24.4446 56.3943 25.0864 55.1967 25.4157C53.9991 25.7449 52.7356 25.7497 51.5355 25.4295C50.3355 25.1094 49.2422 24.4758 48.3676 23.5938C47.493 22.7118 46.8685 21.613 46.5581 20.4102L46.5574 20.4073L46.0042 18.2369L45.4708 20.3754L45.4688 20.3832L45.4688 20.3832C45.1584 21.5861 44.534 22.6848 43.6594 23.5668C43.601 23.6257 43.5416 23.6835 43.4814 23.7401ZM43.4812 23.7402C42.6382 24.5321 41.6113 25.1038 40.4914 25.4026C39.2914 25.7227 38.0278 25.7179 36.8303 25.3887C35.6327 25.0594 34.5442 24.4176 33.6763 23.529L33.6755 23.5282L32.1464 21.9591L32.7519 24.0794L32.752 24.0798C33.0942 25.2798 33.1095 26.5495 32.7964 27.7574C32.4832 28.9653 31.853 30.0676 30.971 30.9501C30.0889 31.8325 28.987 32.4631 27.7794 32.7764C26.5722 33.0897 25.3032 33.0745 24.1038 32.7324L24.1028 32.7321L21.9434 32.1205L23.5187 33.6571L23.5195 33.6579C24.4077 34.5262 25.0492 35.6151 25.3782 36.813C25.7073 38.0109 25.7121 39.2748 25.3921 40.4751C25.0722 41.6755 24.439 42.7692 23.5573 43.6442C22.6757 44.5192 21.5774 45.144 20.3748 45.4546L20.3741 45.4548L18.2272 46.0075L20.3737 46.5434L20.3816 46.5454L20.3816 46.5454C21.5841 46.856 22.6824 47.4808 23.5641 48.3558C24.4457 49.2308 25.0789 50.3245 25.3988 51.5249C25.7188 52.7252 25.714 53.9891 25.385 55.187C25.0559 56.3849 24.4145 57.4738 23.5262 58.3421L23.5255 58.3428L21.9559 59.8739L24.0754 59.268L24.0758 59.2679C25.2755 58.9255 26.5449 58.9102 27.7525 59.2236C28.9601 59.5369 30.0619 60.1675 30.944 61.0499C31.8261 61.9324 32.4563 63.0347 32.7694 64.2426C33.0825 65.4505 33.0672 66.7201 32.7251 67.9201L32.7251 67.9202L32.121 70.0392L33.6486 68.4718L33.6493 68.471C34.2133 67.8936 34.8703 67.4204 35.5899 67.0695L39.9405 43.1814C39.3614 42.6345 39 41.8594 39 41C39 39.7536 39.7601 38.6848 40.842 38.2317L43.4812 23.7402ZM43.4812 23.7402L43.4814 23.7401L45.0106 15.3427L43.4812 23.7402ZM41 41C41 40.4477 41.4477 40 42 40C42.5523 40 43 40.4477 43 41C43 41.5523 42.5523 42 42 42C41.4477 42 41 41.5523 41 41ZM53 67C53 58.7157 59.7157 52 68 52C76.2843 52 83 58.7157 83 67C83 75.2843 76.2843 82 68 82C59.7157 82 53 75.2843 53 67ZM52 50C51.4477 50 51 50.4477 51 51C51 51.5523 51.4477 52 52 52C52.5523 52 53 51.5523 53 51C53 50.4477 52.5523 50 52 50ZM49 51C49 49.3431 50.3431 48 52 48C53.6569 48 55 49.3431 55 51C55 52.6569 53.6569 54 52 54C50.3431 54 49 52.6569 49 51ZM62 73C62 72.4477 62.4477 72 63 72H65V58C65 57.4477 65.4477 57 66 57C66.5523 57 67 57.4477 67 58V72H69C69.5523 72 70 72.4477 70 73C70 73.5523 69.5523 74 69 74H67V78C67 78.5523 66.5523 79 66 79C65.4477 79 65 78.5523 65 78V74H63C62.4477 74 62 73.5523 62 73ZM54.7071 38.2929C55.0976 38.6834 55.0976 39.3166 54.7071 39.7071L40.7071 53.7071C40.3166 54.0976 39.6834 54.0976 39.2929 53.7071C38.9024 53.3166 38.9024 52.6834 39.2929 52.2929L53.2929 38.2929C53.6834 37.9024 54.3166 37.9024 54.7071 38.2929ZM69 57C68.4477 57 68 57.4477 68 58C68 58.5523 68.4477 59 69 59H71.4778C71.7644 59 72.1191 59.1623 72.444 59.635C72.7681 60.1065 73 60.8159 73 61.6545V64.3317C73 65.1665 72.7682 65.8814 72.4429 66.3593C72.1151 66.8406 71.7624 67 71.4889 67H69C68.4477 67 68 67.4477 68 68C68 68.5523 68.4477 69 69 69H71.4889C72.6154 69 73.5182 68.3335 74.096 67.4849C74.6762 66.6327 75 65.5135 75 64.3317V61.6545C75 60.4697 74.6764 59.3519 74.0921 58.502C73.5087 57.6532 72.6022 57 71.4778 57H69Z" fill="white"/>
</svg>
