<svg width="100" height="100" viewBox="0 0 100 100" fill="none" xmlns="http://www.w3.org/2000/svg">
<circle cx="50" cy="50" r="50" fill="#688DBC"/>
<path fill-rule="evenodd" clip-rule="evenodd" d="M73.8083 19.6391C72.5205 18.002 70.2418 17.7754 67.9877 18.1655C65.6643 18.5675 62.9973 19.6752 60.4622 21.2202C57.9213 22.7687 55.4573 24.7902 53.5564 27.0702C51.8715 29.0911 50.584 31.3703 50.133 33.7453H50C50 33.7119 49.9983 33.6784 49.9949 33.6448C49.5263 28.9992 46.0269 24.6569 41.9924 22.1831C37.9952 19.7321 32.9656 18.8431 29.5529 21.9775C29.2536 22.2481 29.013 22.5837 28.8659 22.9693C28.7174 23.3586 28.6726 23.778 28.7408 24.1923C28.8087 24.6054 28.984 24.985 29.236 25.3071C29.4871 25.628 29.808 25.8846 30.1652 26.0711C30.1785 26.0781 30.1919 26.0847 30.2055 26.091L46.701 33.7453H43.2258C43.1512 33.7453 43.0787 33.7538 43.0089 33.7701L20.9671 33.7853C20.4329 33.7856 20 34.2261 20 34.7694V37.0888V40.2481V41.4528C20 41.4616 20.0001 41.4703 20.0003 41.479C20.0171 42.1188 20.3402 42.6693 20.8 43.0373C21.2548 43.4013 21.83 43.5829 22.398 43.5867L22.398 43.5867L22.4056 43.5867L41.8359 43.5617C41.9873 43.5615 42.1305 43.526 42.2581 43.4628V78.0317H27.2548C27.0688 78.0317 26.9213 77.9692 26.8394 77.9017C26.8009 77.87 26.7843 77.8439 26.7781 77.8317C26.7757 77.8268 26.7746 77.8238 26.7742 77.8223V76.6526V45.555C26.7742 45.0115 26.3409 44.5708 25.8065 44.5708C25.272 44.5708 24.8387 45.0115 24.8387 45.555V76.6526V77.8241C24.8387 78.4766 25.1551 79.0478 25.6219 79.4319C26.0832 79.8114 26.6726 80 27.2548 80H72.7452L72.7485 80C73.3308 79.998 73.9195 79.8078 74.38 79.4273C74.846 79.0422 75.1613 78.471 75.1613 77.819V76.6526V45.555C75.1613 45.0115 74.728 44.5708 74.1935 44.5708C73.6591 44.5708 73.2258 45.0115 73.2258 45.555V76.6526V77.8177C73.2254 77.8193 73.2243 77.8228 73.2215 77.8285C73.2151 77.8412 73.1982 77.8677 73.1594 77.8997C73.0773 77.9676 72.9298 78.0307 72.7436 78.0317H57.7419V43.4628C57.8698 43.5261 58.0135 43.5617 58.1653 43.5617H77.5832C78.159 43.5617 78.7433 43.3791 79.2036 43.0091C79.6693 42.6348 79.9931 42.0731 79.9999 41.4233H80V41.4128V40.2581V37.1038V34.7294C80 34.4683 79.898 34.2179 79.7163 34.0333C79.5347 33.8487 79.2884 33.7451 79.0316 33.7453L56.938 33.7605C56.8824 33.7504 56.8257 33.7453 56.7685 33.7453H54.3781C56.6652 32.3206 57.9128 31.6029 59.2145 31.1082C60.5977 30.5826 62.0252 30.3129 64.8303 29.783L64.8303 29.783L64.8306 29.7829L64.8318 29.7827L64.833 29.7825C65.6361 29.6308 66.5521 29.4577 67.6122 29.2512L67.6252 29.2486L67.6449 29.2443L67.4302 28.2847C67.6449 29.2443 67.6452 29.2442 67.6455 29.2441L67.6465 29.2439L67.649 29.2433L67.6568 29.2415L67.6832 29.2352C67.7054 29.2298 67.7369 29.222 67.7768 29.2119C67.8567 29.1916 67.9706 29.1617 68.1123 29.1219C68.3955 29.0425 68.7922 28.923 69.2529 28.7611C70.1654 28.4405 71.3686 27.9399 72.443 27.2311C73.4974 26.5356 74.5631 25.5506 74.981 24.2092C75.423 22.7903 75.0644 21.2411 73.8093 19.6403L73.8083 19.6391ZM21.9355 35.7529L42.2581 35.7389V41.6924C42.1298 41.6288 41.9857 41.5932 41.8335 41.5934L22.4077 41.6184C22.2235 41.6165 22.0781 41.5554 21.9969 41.4905C21.9586 41.4598 21.9425 41.435 21.937 41.4248L21.9355 41.4217V40.2481V37.0888V35.7529ZM58.1653 41.5934C58.0135 41.5934 57.8698 41.629 57.7419 41.6923V35.7282L78.0645 35.7142V37.1038V40.2581V41.3961L78.063 41.3991C78.0579 41.409 78.0421 41.4339 78.0034 41.465C77.921 41.5312 77.7719 41.5934 77.5833 41.5934H58.1653ZM55.8065 35.7295L44.1935 35.7375V78.0317H55.8065V35.7295ZM67.2348 27.3204L67.2289 27.3218C66.2444 27.5135 65.3735 27.6777 64.5932 27.8249C61.734 28.364 60.0917 28.6737 58.537 29.2645C56.8878 29.8912 55.3178 30.8389 52.4458 32.6426C52.9766 31.1921 53.8697 29.738 55.0327 28.3431C56.775 26.2533 59.067 24.3651 61.4571 22.9085C63.853 21.4484 66.2922 20.4554 68.3124 20.1059C70.4012 19.7444 71.7033 20.1148 72.2964 20.868C73.2741 22.1152 73.3293 22.9938 73.1359 23.6147C72.9183 24.3131 72.2993 24.9798 71.3897 25.5799C70.5002 26.1667 69.4604 26.6057 68.6207 26.9007C68.2054 27.0467 67.8487 27.1541 67.5976 27.2245C67.4722 27.2597 67.3737 27.2855 67.308 27.3022C67.2751 27.3106 67.2504 27.3166 67.2348 27.3204ZM40.993 23.8687C37.2541 21.5761 33.2966 21.1887 30.8476 23.4406L30.8402 23.4474L30.8402 23.4474C30.7481 23.5304 30.6964 23.613 30.6704 23.6813C30.6451 23.7476 30.6401 23.8092 30.6497 23.8676C30.6596 23.9273 30.6877 24.0012 30.7506 24.0816C30.8118 24.1599 30.9044 24.2416 31.0324 24.3112L47.7037 32.047C46.7295 28.8363 44.1161 25.7836 40.993 23.8687Z" fill="white"/>
</svg>
