<svg width="100" height="100" viewBox="0 0 100 100" fill="none" xmlns="http://www.w3.org/2000/svg">
<circle cx="50" cy="50" r="50" fill="#688DBC"/>
<path fill-rule="evenodd" clip-rule="evenodd" d="M26 18C25.4477 18 25 18.4444 25 18.9926V76.563C25 77.1112 25.4477 77.5556 26 77.5556H47.5625C48.1148 77.5556 48.5625 77.1112 48.5625 76.563C48.5625 76.0148 48.1148 75.5704 47.5625 75.5704H27V19.9852H71V63.3337C71 63.8819 71.4477 64.3263 72 64.3263C72.5523 64.3263 73 63.8819 73 63.3337V18.9926C73 18.4444 72.5523 18 72 18H26ZM49 25.4444C49 24.8963 49.4477 24.4519 50 24.4519H66C66.5523 24.4519 67 24.8963 67 25.4444C67 25.9926 66.5523 26.437 66 26.437H50C49.4477 26.437 49 25.9926 49 25.4444ZM33 41.3259C33 40.7777 33.4477 40.3333 34 40.3333H66C66.5523 40.3333 67 40.7777 67 41.3259C67 41.8741 66.5523 42.3185 66 42.3185H34C33.4477 42.3185 33 41.8741 33 41.3259ZM50 29.4148C49.4477 29.4148 49 29.8592 49 30.4074C49 30.9556 49.4477 31.4 50 31.4H66C66.5523 31.4 67 30.9556 67 30.4074C67 29.8592 66.5523 29.4148 66 29.4148H50ZM33 47.2815C33 46.7333 33.4477 46.2889 34 46.2889H66C66.5523 46.2889 67 46.7333 67 47.2815C67 47.8297 66.5523 48.2741 66 48.2741H34C33.4477 48.2741 33 47.8297 33 47.2815ZM34 52.2444C33.4477 52.2444 33 52.6888 33 53.237C33 53.7852 33.4477 54.2296 34 54.2296H66C66.5523 54.2296 67 53.7852 67 53.237C67 52.6888 66.5523 52.2444 66 52.2444H34ZM61 67.1333C58.2386 67.1333 56 69.3553 56 72.0963C56 74.8373 58.2386 77.0593 61 77.0593C63.7614 77.0593 66 74.8373 66 72.0963C66 69.3553 63.7614 67.1333 61 67.1333ZM54 72.0963C54 69.4504 55.4899 67.15 57.6824 65.9765L58.2307 64.6005L58.231 64.6004L57.6828 65.9763C58.6701 65.448 59.7998 65.1481 61 65.1481C64.866 65.1481 68 68.2589 68 72.0963C68 75.9337 64.866 79.0444 61 79.0444C57.9137 79.0444 55.2939 77.0619 54.3627 74.3099L53.4189 76.6788L53.4182 76.6787L54.3624 74.3089C54.1274 73.6139 54 72.8699 54 72.0963ZM60.3006 59.4057C60.506 59.2669 60.7487 59.1926 60.9972 59.1926C61.2458 59.1926 61.4885 59.2669 61.6939 59.4057C61.8993 59.5445 62.0577 59.7414 62.1487 59.9707C62.1648 60.0112 62.1782 60.0527 62.1888 60.095L62.5537 61.5506L62.5546 61.554C62.6144 61.7962 62.7383 62.018 62.9134 62.1964C63.0885 62.3749 63.3083 62.5034 63.5501 62.5689C63.7919 62.6343 64.0469 62.6343 64.2887 62.5688C64.5287 62.5038 64.7471 62.3767 64.9215 62.2003L65.9599 61.1144C66.1473 60.9125 66.3976 60.7785 66.6711 60.7343C66.9524 60.6888 67.2408 60.7411 67.4877 60.8822C67.7346 61.0233 67.9248 61.2445 68.0264 61.5085C68.1246 61.7637 68.1343 62.044 68.0543 62.3048L67.643 63.7376L67.6424 63.7396C67.5733 63.9785 67.5699 64.2315 67.6324 64.4722C67.695 64.7129 67.8214 64.9325 67.9982 65.1082C68.175 65.2838 68.3959 65.4092 68.6378 65.4712C68.8797 65.5333 69.1339 65.5299 69.3741 65.4613L69.3761 65.4607L70.8302 65.0488L70.8488 65.0437C71.1111 64.9748 71.3889 64.993 71.6398 65.0954C71.8907 65.1978 72.1008 65.3789 72.2383 65.6108C72.3758 65.8427 72.4332 66.1128 72.4018 66.3799C72.3704 66.6471 72.252 66.8969 72.0643 67.0911C72.0542 67.1016 72.0439 67.1118 72.0334 67.1218L70.9311 68.1675C70.753 68.3404 70.6244 68.5573 70.5587 68.7962C70.4927 69.0362 70.4927 69.2894 70.5586 69.5295C70.6245 69.7695 70.754 69.9875 70.9334 70.1608C71.1129 70.3341 71.3357 70.4564 71.5787 70.5151L71.5869 70.517L71.5869 70.5171L73.0486 70.8828C73.316 70.9459 73.5547 71.0957 73.727 71.3085C73.9038 71.5268 74 71.7984 74 72.0783C74 72.3581 73.9038 72.6298 73.727 72.8481C73.5547 73.0609 73.316 73.2106 73.0486 73.2737L71.609 73.634L71.6029 73.6355C71.3595 73.6948 71.1365 73.8177 70.9569 73.9916C70.7773 74.1655 70.6477 74.3841 70.5817 74.6247C70.5157 74.8653 70.5157 75.119 70.5818 75.3596C70.6473 75.5984 70.7754 75.8155 70.953 75.9888L72.0536 77.0275C72.0601 77.0336 72.0665 77.0399 72.0729 77.0462C72.0774 77.0507 72.082 77.0553 72.0864 77.0599C72.2741 77.2542 72.3925 77.504 72.4239 77.7712C72.4553 78.0383 72.3979 78.3084 72.2604 78.5403C72.123 78.7722 71.9128 78.9532 71.6619 79.0557C71.411 79.1581 71.1332 79.1763 70.8709 79.1074L70.8524 79.1023L69.3982 78.6903L69.3962 78.6898C69.156 78.6212 68.9018 78.6178 68.6599 78.6798C68.418 78.7419 68.1971 78.8672 68.0203 79.0429C67.8435 79.2186 67.7171 79.4381 67.6546 79.6788C67.592 79.9196 67.5954 80.1726 67.6646 80.4115L67.6651 80.4135L68.0764 81.8462C68.1564 82.1071 68.1468 82.3873 68.0485 82.6426C67.9469 82.9065 67.7568 83.1278 67.5099 83.2689C67.263 83.41 66.9745 83.4623 66.6933 83.4168C66.4197 83.3725 66.1694 83.2385 65.9821 83.0367L64.942 81.9491C64.7681 81.7713 64.5496 81.643 64.3091 81.5773C64.0675 81.5114 63.8125 81.5111 63.5707 81.5765C63.3289 81.642 63.1091 81.7708 62.9344 81.9496C62.7597 82.1284 62.6365 82.3506 62.5777 82.593L62.5761 82.5996L62.2131 84.0527C62.15 84.3188 61.9993 84.5567 61.7844 84.7285C61.5645 84.9042 61.2906 85 61.0083 85C60.7259 85 60.4521 84.9042 60.2322 84.7285C60.0179 84.5572 59.8674 84.3202 59.804 84.0551L59.4358 82.603L59.4338 82.5949C59.3747 82.3531 59.2514 82.1316 59.077 81.9533C58.9025 81.775 58.6832 81.6466 58.442 81.5812C58.2007 81.5158 57.9463 81.5159 57.705 81.5813C57.465 81.6465 57.2467 81.7741 57.0728 81.951L56.0278 83.038C55.8406 83.2391 55.5908 83.3726 55.3178 83.4168C55.0365 83.4623 54.7481 83.41 54.5012 83.2689C54.2543 83.1278 54.0641 82.9065 53.9625 82.6426C53.864 82.3866 53.8546 82.1055 53.9353 81.844L54.3509 80.4154L54.3515 80.4132C54.419 80.1746 54.4215 79.9225 54.3586 79.6827C54.2955 79.4421 54.169 79.2227 53.9922 79.047C53.8153 78.8713 53.5946 78.7458 53.3529 78.6832C53.1114 78.6208 52.8576 78.6233 52.6175 78.6906L53.4189 76.6788C53.5663 76.697 53.7128 76.7248 53.8574 76.7623C54.4438 76.914 54.9787 77.2184 55.407 77.6438C55.8353 78.0693 56.1415 78.6005 56.2941 79.1826C56.3629 79.4451 56.3994 79.7137 56.4036 79.9825C56.6464 79.8465 56.9062 79.7401 57.1775 79.6664C57.7639 79.5073 58.3824 79.5072 58.9688 79.6661C59.5552 79.8251 60.0879 80.1372 60.5115 80.57C60.7021 80.7647 60.8674 80.9807 61.0047 81.2127C61.1421 80.9797 61.3078 80.7629 61.4988 80.5674C61.9229 80.1334 62.4568 79.8204 63.0445 79.6613C63.6322 79.5022 64.2522 79.5029 64.8395 79.6632C65.1098 79.737 65.3685 79.8433 65.6104 79.979C65.6142 79.7115 65.6501 79.4441 65.718 79.1828C65.8698 78.599 66.1762 78.0662 66.6055 77.6397C67.0348 77.2133 67.5713 76.9087 68.1593 76.7578C68.4254 76.6896 68.6975 76.6539 68.9699 76.6507C68.8331 76.4093 68.726 76.151 68.652 75.8813C68.4923 75.2992 68.4923 74.6853 68.652 74.1032C68.8116 73.5211 69.1252 72.9919 69.5602 72.5707C69.7545 72.3825 69.9699 72.2189 70.2013 72.0827C69.9617 71.9445 69.739 71.7771 69.5386 71.5836C69.103 71.1628 68.7889 70.6338 68.629 70.0516C68.4691 69.4695 68.4692 68.8555 68.6293 68.2734C68.7039 68.0023 68.8118 67.7428 68.95 67.5004C68.6769 67.4974 68.404 67.4617 68.1372 67.3932C67.5492 67.2424 67.0127 66.9378 66.5834 66.5113C66.1541 66.0849 65.8477 65.552 65.6959 64.9683C65.6277 64.706 65.5918 64.4376 65.5882 64.1691C65.3456 64.3046 65.086 64.4106 64.8151 64.484C64.2287 64.6428 63.6103 64.6428 63.0239 64.4841C62.4376 64.3254 61.9047 64.0137 61.4807 63.5816C61.2939 63.3912 61.1312 63.1805 60.9952 62.9543C60.8598 63.1803 60.6977 63.3908 60.5115 63.5811C60.0879 64.0138 59.5552 64.326 58.9688 64.4849C58.7268 64.5505 58.4794 64.589 58.231 64.6004L59.3317 61.8377C59.3631 61.7737 59.3896 61.7073 59.4108 61.639L60.3006 59.4057ZM59.4112 61.6378L60.3006 59.4057C60.0952 59.5445 59.9368 59.7414 59.8457 59.9707C59.8301 60.0101 59.817 60.0505 59.8065 60.0916L59.4361 61.5472L59.436 61.5472L59.4338 61.5562C59.4271 61.5836 59.4196 61.6109 59.4112 61.6378ZM59.3311 61.8389C59.2663 61.9706 59.1807 62.0918 59.077 62.1978C58.9025 62.376 58.6832 62.5045 58.442 62.5699C58.2007 62.6352 57.9463 62.6352 57.705 62.5697C57.465 62.5046 57.2468 62.377 57.0728 62.2001L56.0277 61.113C55.8405 60.9119 55.5907 60.7784 55.3178 60.7343C55.0365 60.6888 54.7481 60.7411 54.5012 60.8822C54.2543 61.0233 54.0641 61.2445 53.9625 61.5085C53.864 61.7645 53.8546 62.0456 53.9353 62.3071L54.3515 63.7379C54.419 63.9765 54.4215 64.2286 54.3586 64.4684C54.2955 64.709 54.169 64.9284 53.9922 65.1041C53.8154 65.2797 53.5946 65.4053 53.3529 65.4678C53.1113 65.5303 52.8573 65.5278 52.617 65.4603L52.6164 65.4602L51.1577 65.0485C51.1421 65.0441 51.1263 65.04 51.1104 65.0364C50.8503 64.9764 50.5777 65.0012 50.333 65.107C50.0882 65.2128 49.8844 65.3939 49.7515 65.6235C49.6185 65.853 49.5635 66.1188 49.5944 66.3817C49.6253 66.6446 49.7405 66.8908 49.9232 67.0838C49.9355 67.0968 49.9481 67.1095 49.9611 67.1218L51.0634 68.1675C51.2415 68.3404 51.3701 68.5574 51.4358 68.7962C51.5018 69.0362 51.5018 69.2894 51.4359 69.5295C51.3699 69.7695 51.2405 69.9875 51.061 70.1608C50.8816 70.3341 50.6588 70.4564 50.4158 70.5151L50.4158 70.515L50.4067 70.5173L48.9509 70.883C48.6837 70.9462 48.4452 71.0958 48.273 71.3085C48.0963 71.5268 48 71.7984 48 72.0783C48 72.3582 48.0963 72.6298 48.273 72.8481C48.4457 73.0614 48.6851 73.2113 48.9532 73.2742L50.4102 73.6346L50.4137 73.6355C50.657 73.6948 50.8801 73.8177 51.0597 73.9916C51.2393 74.1655 51.3689 74.3841 51.4349 74.6247C51.5009 74.8653 51.5008 75.119 51.4348 75.3596C51.3693 75.5984 51.2411 75.8156 51.0636 75.9888L49.9705 77.0204C49.7673 77.2065 49.6326 77.455 49.5882 77.7261C49.5425 78.005 49.5949 78.291 49.7368 78.536C49.8787 78.781 50.1014 78.97 50.3675 79.0711C50.6247 79.1688 50.907 79.1785 51.1698 79.0991L52.6164 78.6909L53.4182 76.6787C53.2943 76.6635 53.1698 76.655 53.0452 76.6533C53.1828 76.4111 53.2903 76.1519 53.3645 75.8813C53.5243 75.2992 53.5243 74.6853 53.3646 74.1032C53.205 73.5211 52.8914 72.9919 52.4564 72.5707C52.259 72.3795 52.0399 72.2138 51.8043 72.0763C52.0397 71.9393 52.2586 71.7741 52.4559 71.5836C52.8915 71.1628 53.2056 70.6338 53.3655 70.0516C53.5253 69.4695 53.5252 68.8555 53.3652 68.2734C53.2903 68.0014 53.1819 67.741 53.043 67.4978C53.3167 67.4943 53.5902 67.4579 53.8574 67.3888C54.4438 67.2371 54.9786 66.9327 55.407 66.5072C55.8353 66.0817 56.1415 65.5505 56.2941 64.9684C56.3629 64.706 56.3994 64.4374 56.4036 64.1686C56.6464 64.3046 56.9062 64.411 57.1775 64.4846C57.5218 64.5781 57.8772 64.6167 58.2307 64.6005L59.3311 61.8389ZM59.3311 61.8389L59.4112 61.6378L59.4108 61.639L59.3317 61.8377L59.3311 61.8389ZM63.8045 70.7007C64.1325 70.2597 64.0383 69.6382 63.594 69.3126C63.1497 68.987 62.5236 69.0805 62.1955 69.5215L60.3083 72.0587L59.9284 71.1164C59.7233 70.6075 59.1413 70.36 58.6285 70.5636C58.1157 70.7673 57.8664 71.345 58.0716 71.8539L59.1182 74.4502C59.253 74.7845 59.5595 75.0201 59.9193 75.066C60.2791 75.1118 60.6357 74.9607 60.8511 74.6711L63.8045 70.7007Z" fill="white"/>
</svg>
