<svg width="100" height="100" viewBox="0 0 100 100" fill="none" xmlns="http://www.w3.org/2000/svg">
<circle cx="50" cy="50" r="50" fill="#688DBC"/>
<path fill-rule="evenodd" clip-rule="evenodd" d="M34.2765 26C34.251 26 34.2255 26.0009 34.2 26.0026C33.4703 26.0523 32.8843 26.4425 32.5164 26.9372C32.1528 27.4259 31.9842 28.0283 32.0012 28.6159V67.7778C32.0012 68.2687 32.4489 68.6667 33.0012 68.6667H52.8697C53.422 68.6667 53.8697 68.2687 53.8697 67.7778C53.8697 67.2869 53.422 66.8889 52.8697 66.8889H34.0012V28.6036C34.0012 28.5946 34.001 28.5856 34.0007 28.5766C33.9914 28.3032 34.074 28.0665 34.1847 27.9176C34.2605 27.8157 34.3218 27.786 34.3455 27.7778H69.6545C69.6782 27.786 69.7395 27.8157 69.8153 27.9176C69.926 28.0665 70.0086 28.3032 69.9993 28.5766L69.9989 28.5948L69.9988 28.6036V66.8889H68.8223C68.27 66.8889 67.8223 67.2869 67.8223 67.7778C67.8223 68.2687 68.27 68.6667 68.8223 68.6667H70.9988C71.5511 68.6667 71.9988 68.2687 71.9988 67.7778V28.616C72.0158 28.0283 71.8472 27.426 71.4836 26.9372C71.1157 26.4425 70.5297 26.0523 69.8 26.0026C69.7745 26.0009 69.749 26 69.7235 26H34.2765ZM61.0107 63.3333C59.9252 63.3333 58.8596 63.5939 57.9279 64.0875C57.0332 64.5615 56.2939 65.2335 55.7826 66.037C55.7572 66.0684 55.7337 66.1016 55.7125 66.1365C55.2248 66.9408 54.9797 67.843 55.0013 68.7559C55.02 70.1631 55.6699 71.5053 56.8065 72.488C57.3698 72.9751 58.0359 73.3592 58.7666 73.6184C59.4973 73.8777 60.2784 74.0072 61.0654 73.9997C61.8524 73.9922 62.6301 73.8477 63.3543 73.5745C64.0785 73.3013 64.7351 72.9046 65.2864 72.4068C65.8377 71.9089 66.273 71.3197 66.5671 70.6726C66.8601 70.028 67.0071 69.3387 66.9997 68.6438C67.0051 67.7708 66.7656 66.9105 66.3028 66.1398L66.3015 66.1376C65.7888 65.2892 65.0252 64.5811 64.0936 64.0875C63.1618 63.5939 62.0963 63.3333 61.0107 63.3333ZM57.001 68.7217C56.9867 68.1467 57.1321 67.5775 57.4239 67.0638C57.4447 67.0369 57.4641 67.0087 57.4819 66.9793C57.8225 66.4158 58.3303 65.9439 58.9519 65.6146C59.5734 65.2853 60.2851 65.1111 61.0107 65.1111C61.7364 65.1111 62.448 65.2853 63.0696 65.6146C63.691 65.9439 64.1987 66.4152 64.5391 66.978C64.8461 67.4898 65.0043 68.0607 64.9997 68.6393L64.9998 68.6552C65.0054 69.1179 64.9079 69.5771 64.7127 70.0067C64.5174 70.4364 64.2282 70.8282 63.8611 71.1596C63.494 71.491 63.0564 71.7556 62.5729 71.938C62.0895 72.1204 61.5699 72.217 61.0438 72.222C60.5178 72.2271 59.996 72.1405 59.5081 71.9674C59.0203 71.7943 58.5762 71.5381 58.201 71.2137C57.4435 70.5587 57.0126 69.6657 57.0011 68.7316H57.0012L57.001 68.7217ZM19.8238 53.0913C20.0056 52.8275 20.3286 52.6667 20.6766 52.6667H29C29.5523 52.6667 30 53.0646 30 53.5556C30 54.0465 29.5523 54.4444 29 54.4444H21.2367L17 60.5927V66.8889H17.4683C18.0206 66.8889 18.4683 67.2869 18.4683 67.7778C18.4683 68.2687 18.0206 68.6667 17.4683 68.6667H16C15.4477 68.6667 15 68.2687 15 67.7778V60.3421C15 60.1782 15.051 60.0175 15.1473 59.8778L19.8238 53.0913ZM25.0006 63.3333C23.9182 63.3333 22.8559 63.5936 21.9264 64.0866C20.9974 64.5793 20.2344 65.2859 19.72 66.1331C19.2267 66.9456 18.9791 67.858 19.0014 68.7811C19.0237 69.7041 19.3152 70.6062 19.8474 71.3991C20.3795 72.192 21.1341 72.8485 22.0373 73.3044C22.9405 73.7603 23.9613 74 25 74C26.0387 74 27.0595 73.7603 27.9627 73.3044C28.8659 72.8485 29.6205 72.192 30.1526 71.3991C30.6848 70.6062 30.9763 69.7041 30.9986 68.7811C31.0209 67.858 30.7733 66.9456 30.28 66.1331C29.7659 65.2864 29.0043 64.5796 28.0748 64.0866C27.1452 63.5936 26.083 63.3333 25.0006 63.3333ZM22.9512 65.6133C23.5709 65.2846 24.279 65.1111 25.0006 65.1111C25.7222 65.1111 26.4303 65.2846 27.05 65.6133C27.6697 65.9419 28.1772 66.413 28.52 66.9775C28.8489 67.5191 29.014 68.1274 28.9991 68.7428C28.9842 69.3582 28.7898 69.9597 28.4351 70.4883C28.0803 71.0169 27.5772 71.4546 26.9751 71.7585C26.373 72.0624 25.6924 72.2222 25 72.2222C24.3076 72.2222 23.627 72.0624 23.0249 71.7585C22.4228 71.4546 21.9197 71.0169 21.5649 70.4883C21.2102 69.9597 21.0158 69.3582 21.0009 68.7428C20.986 68.1274 21.1511 67.5191 21.48 66.9775C21.8225 66.4135 22.3309 65.9422 22.9512 65.6133ZM73 41.1111C73 40.6202 73.4477 40.2222 74 40.2222H80C80.5523 40.2222 81 40.6202 81 41.1111C81 41.602 80.5523 42 80 42H74C73.4477 42 73 41.602 73 41.1111ZM74 44.6667C73.4477 44.6667 73 45.0646 73 45.5556C73 46.0465 73.4477 46.4444 74 46.4444H84C84.5523 46.4444 85 46.0465 85 45.5556C85 45.0646 84.5523 44.6667 84 44.6667H74ZM73 32.2222C73 31.7313 73.4477 31.3333 74 31.3333H82C82.5523 31.3333 83 31.7313 83 32.2222C83 32.7131 82.5523 33.1111 82 33.1111H74C73.4477 33.1111 73 32.7131 73 32.2222ZM74 35.7778C73.4477 35.7778 73 36.1757 73 36.6667C73 37.1576 73.4477 37.5556 74 37.5556H84C84.5523 37.5556 85 37.1576 85 36.6667C85 36.1757 84.5523 35.7778 84 35.7778H74ZM73 50C73 49.5091 73.4477 49.1111 74 49.1111H79C79.5523 49.1111 80 49.5091 80 50C80 50.4909 79.5523 50.8889 79 50.8889H74C73.4477 50.8889 73 50.4909 73 50ZM74 53.5556C73.4477 53.5556 73 53.9535 73 54.4444C73 54.9354 73.4477 55.3333 74 55.3333H84C84.5523 55.3333 85 54.9354 85 54.4444C85 53.9535 84.5523 53.5556 84 53.5556H74ZM73 58.8889C73 58.398 73.4477 58 74 58H80C80.5523 58 81 58.398 81 58.8889C81 59.3798 80.5523 59.7778 80 59.7778H74C73.4477 59.7778 73 59.3798 73 58.8889ZM74 62.4444C73.4477 62.4444 73 62.8424 73 63.3333C73 63.8243 73.4477 64.2222 74 64.2222H84C84.5523 64.2222 85 63.8243 85 63.3333C85 62.8424 84.5523 62.4444 84 62.4444H74Z" fill="white"/>
</svg>
