<svg width="64" height="64" viewBox="0 0 64 64" fill="none" xmlns="http://www.w3.org/2000/svg">
<circle cx="32" cy="32" r="32" fill="#688DBC"/>
<path d="M34.368 46.6C32.288 46.6 30.4613 46.1933 28.888 45.38C27.328 44.5533 26.108 43.4067 25.228 41.94C24.3613 40.4733 23.928 38.76 23.928 36.8V34.76H22.648V44.72C22.648 45.92 22.088 46.52 20.968 46.52C19.848 46.52 19.288 45.9067 19.288 44.68V21.92C19.288 20.6667 19.8346 20.04 20.928 20.04C21.4746 20.04 21.8946 20.2067 22.188 20.54C22.4946 20.8733 22.648 21.32 22.648 21.88V31.4H23.928V29.76C23.928 27.8 24.3613 26.0867 25.228 24.62C26.108 23.14 27.328 21.9933 28.888 21.18C30.4613 20.3667 32.288 19.96 34.368 19.96C36.4213 19.96 38.208 20.3667 39.728 21.18C41.248 21.9933 42.428 23.1333 43.268 24.6C44.108 26.0667 44.528 27.7867 44.528 29.76V36.8C44.528 38.7733 44.108 40.4933 43.268 41.96C42.428 43.4267 41.248 44.5667 39.728 45.38C38.208 46.1933 36.4213 46.6 34.368 46.6ZM34.448 43.24C36.6346 43.24 38.3013 42.68 39.448 41.56C40.5946 40.4267 41.168 38.8 41.168 36.68V29.88C41.168 27.76 40.5946 26.14 39.448 25.02C38.3013 23.8867 36.6346 23.32 34.448 23.32C32.2346 23.32 30.508 23.9 29.268 25.06C28.028 26.2067 27.408 27.8133 27.408 29.88V36.68C27.408 38.76 28.028 40.3733 29.268 41.52C30.508 42.6667 32.2346 43.24 34.448 43.24Z" fill="white"/>
</svg>
