<svg width="64" height="64" viewBox="0 0 64 64" fill="none" xmlns="http://www.w3.org/2000/svg">
<circle cx="32" cy="32" r="32" fill="#688DBC"/>
<path d="M23.9358 46.52C23.4424 46.52 23.0424 46.3533 22.7358 46.02C22.4424 45.6867 22.2958 45.24 22.2958 44.68V23.2C22.2958 22.6533 22.4491 22.1933 22.7558 21.82C23.0624 21.4333 23.4958 21.24 24.0558 21.24C25.1224 21.24 25.6558 21.8933 25.6558 23.2V32.48H28.8558C29.2158 32.48 29.6224 32.3 30.0758 31.94C30.5291 31.5667 31.0624 30.9667 31.6758 30.14C32.2891 29.3 33.0158 28.1733 33.8558 26.76C34.1358 26.2933 34.4758 25.7467 34.8758 25.12C35.2758 24.48 35.7358 23.8667 36.2558 23.28C36.7891 22.68 37.3891 22.1867 38.0558 21.8C38.7358 21.4 39.4824 21.2 40.2958 21.2C41.6824 21.2 42.3758 21.8 42.3758 23C42.3758 23.64 42.1758 24.04 41.7758 24.2C41.3891 24.36 40.8958 24.48 40.2958 24.56C39.7224 24.64 39.2024 24.9667 38.7358 25.54C38.2824 26.1 37.6958 26.96 36.9758 28.12C36.3624 29.12 35.8691 29.92 35.4958 30.52C35.1358 31.12 34.8158 31.62 34.5358 32.02C34.2558 32.42 33.9224 32.8133 33.5358 33.2C33.1624 33.5733 32.6424 34.04 31.9758 34.6L31.8958 33.56C32.7224 34.2267 33.4491 34.9267 34.0758 35.66C34.7158 36.38 35.2824 37.1 35.7758 37.82C36.2691 38.54 36.7224 39.2267 37.1358 39.88C37.8424 40.96 38.4158 41.7533 38.8558 42.26C39.3091 42.7533 39.8024 43.0533 40.3358 43.16C40.5358 43.2 40.7958 43.2533 41.1158 43.32C41.4491 43.3733 41.7424 43.5133 41.9958 43.74C42.2491 43.9667 42.3758 44.3467 42.3758 44.88C42.3758 45.9733 41.7224 46.52 40.4158 46.52C39.4424 46.52 38.4358 46.2 37.3958 45.56C36.3691 44.9067 35.3758 43.9333 34.4158 42.64C34.2024 42.3333 33.8758 41.8667 33.4358 41.24C33.0091 40.6 32.6158 40.0133 32.2558 39.48C31.4424 38.2533 30.7424 37.34 30.1558 36.74C29.5824 36.14 29.0158 35.84 28.4558 35.84H25.6558V44.68C25.6558 45.2133 25.4958 45.6533 25.1758 46C24.8691 46.3467 24.4558 46.52 23.9358 46.52Z" fill="white"/>
</svg>
