<svg width="143" height="70" viewBox="0 0 143 70" fill="none" xmlns="http://www.w3.org/2000/svg">
<path d="M41.6284 26.2505C40.9489 26.2505 40.4136 25.8245 40.0203 24.9746L30.337 2.35082C30.1414 1.90016 30.0878 1.49683 30.1805 1.14288C30.2711 0.788931 30.5717 0.494661 31.0823 0.262127C32.153 -0.266736 32.9127 0.00489703 33.3554 1.07497L42.5096 22.46H41.3731L50.2925 1.07497C50.7229 0.017244 51.4826 -0.252331 52.5657 0.262127C53.0227 0.494661 53.3069 0.786873 53.4181 1.14288C53.5293 1.49683 53.4922 1.90016 53.311 2.35082L43.5494 24.9746C43.1438 25.8245 42.557 26.2505 41.7849 26.2505H41.6284Z" fill="#688DBC"/>
<path d="M92.9257 26.2505C91.8242 26.2505 91.2744 25.7093 91.2744 24.6248V1.62647C91.2744 0.541993 91.8262 0.000781857 92.9257 0.000781857C93.4899 0.000781857 94.0396 0.323864 94.577 0.967965L110.39 21.0236H109.564V1.62647C109.564 0.541993 110.114 0.000781857 111.216 0.000781857C112.317 0.000781857 112.867 0.541993 112.867 1.62647V24.6248C112.867 25.7093 112.317 26.2505 111.216 26.2505C110.625 26.2505 110.075 25.9274 109.564 25.2833L93.7514 5.22768H94.577V24.6248C94.5791 25.7072 94.0273 26.2505 92.9257 26.2505Z" fill="#688DBC"/>
<path d="M132.203 26.2505C131.659 26.2505 131.251 26.1147 130.98 25.843C130.708 25.5714 130.572 25.1639 130.572 24.6207V3.25833H123.036C122.493 3.25833 122.085 3.12251 121.813 2.85088C121.541 2.57925 121.405 2.17179 121.405 1.62853C121.405 1.08526 121.541 0.677811 121.813 0.408235C122.085 0.136601 122.493 0.000781857 123.036 0.000781857H141.369C141.913 0.000781857 142.321 0.136601 142.592 0.408235C142.864 0.679869 143 1.08732 143 1.62853C143 2.17179 142.864 2.57925 142.592 2.85088C142.321 3.12251 141.913 3.25833 141.369 3.25833H133.833V24.6227C133.833 25.1392 133.693 25.5405 133.415 25.8245C133.138 26.1085 132.734 26.2505 132.203 26.2505Z" fill="#688DBC"/>
<path d="M83.1909 0.348556C82.9088 0.118079 82.4744 0.000781857 81.8835 0.000781857H61.9938C61.4028 0.000781857 60.9684 0.120138 60.6863 0.356789C60.4042 0.59344 60.2642 0.961792 60.2642 1.45979C60.2642 1.96807 60.4042 2.33848 60.6863 2.57101C60.9684 2.80149 61.4028 2.91879 61.9938 2.91879H81.8835C82.4744 2.91879 82.9088 2.79944 83.1909 2.56278C83.473 2.32613 83.613 1.95778 83.613 1.45979C83.613 0.949445 83.473 0.579033 83.1909 0.348556Z" fill="#688DBC"/>
<path d="M78.5293 12.0144C78.2534 11.7839 77.8252 11.6666 77.2466 11.6666H61.9772C61.3966 11.6666 60.9704 11.786 60.6945 12.0226C60.4186 12.2593 60.2806 12.6276 60.2806 13.1256C60.2806 13.6339 60.4186 14.0043 60.6945 14.2369C60.9704 14.4673 61.3987 14.5846 61.9772 14.5846H77.2466C77.8272 14.5846 78.2534 14.4653 78.5293 14.2286C78.8052 13.992 78.9432 13.6236 78.9432 13.1256C78.9453 12.6153 78.8073 12.2449 78.5293 12.0144Z" fill="#688DBC"/>
<path d="M69.7869 6.18045C69.5172 5.94997 69.1013 5.83268 68.5371 5.83268H61.9155C61.3513 5.83268 60.9333 5.95203 60.6657 6.18868C60.3959 6.42533 60.2621 6.79368 60.2621 7.29168C60.2621 7.79996 60.3959 8.17037 60.6657 8.40291C60.9354 8.63338 61.3513 8.75068 61.9155 8.75068H68.5371C69.1013 8.75068 69.5193 8.63133 69.7869 8.39468C70.0567 8.15803 70.1905 7.78968 70.1905 7.29168C70.1905 6.7834 70.0546 6.41298 69.7869 6.18045Z" fill="#688DBC"/>
<path d="M69.7869 17.8463C69.5172 17.6158 69.1013 17.4985 68.5371 17.4985H61.9155C61.3513 17.4985 60.9333 17.6179 60.6657 17.8545C60.3959 18.0912 60.2621 18.4595 60.2621 18.9575C60.2621 19.4658 60.3959 19.8362 60.6657 20.0688C60.9354 20.2992 61.3513 20.4165 61.9155 20.4165H68.5371C69.1013 20.4165 69.5193 20.2972 69.7869 20.0605C70.0567 19.8239 70.1905 19.4555 70.1905 18.9575C70.1905 18.4492 70.0546 18.0788 69.7869 17.8463Z" fill="#688DBC"/>
<path d="M83.1909 23.6802C82.9088 23.4497 82.4744 23.3325 81.8835 23.3325H61.9938C61.4028 23.3325 60.9684 23.4518 60.6863 23.6885C60.4042 23.9251 60.2642 24.2935 60.2642 24.7915C60.2642 25.2997 60.4042 25.6701 60.6863 25.9027C60.9684 26.1332 61.4028 26.2505 61.9938 26.2505H81.8835C82.4744 26.2505 82.9088 26.1311 83.1909 25.8945C83.473 25.6578 83.613 25.2894 83.613 24.7915C83.613 24.2832 83.473 23.9128 83.1909 23.6802Z" fill="#688DBC"/>
<path d="M22.9308 0.348556C22.6487 0.118079 22.2143 0.000781857 21.6234 0.000781857H1.73366C1.14273 0.000781857 0.708286 0.120138 0.426206 0.356789C0.144127 0.59344 0.00411569 0.961792 0.00411569 1.45979C0.00411569 1.96807 0.144127 2.33848 0.426206 2.57101C0.708286 2.80149 1.14273 2.91879 1.73366 2.91879H21.6234C22.2143 2.91879 22.6487 2.79944 22.9308 2.56278C23.2129 2.32613 23.3529 1.95778 23.3529 1.45979C23.3529 0.949445 23.2108 0.579033 22.9308 0.348556Z" fill="#688DBC"/>
<path d="M18.2693 12.0144C17.9934 11.7839 17.5651 11.6666 16.9866 11.6666H1.70483C1.1242 11.6666 0.69799 11.786 0.422088 12.0226C0.146185 12.2593 0.00823452 12.6276 0.00823452 13.1256C0.00823452 13.6339 0.146185 14.0043 0.422088 14.2369C0.69799 14.4673 1.12626 14.5846 1.70483 14.5846H16.9742C17.5548 14.5846 17.981 14.4653 18.2569 14.2286C18.5328 13.992 18.6708 13.6236 18.6708 13.1256C18.6831 12.6153 18.5452 12.2449 18.2693 12.0144Z" fill="#688DBC"/>
<path d="M9.52482 6.18045C9.2551 5.94997 8.83918 5.83268 8.27502 5.83268H1.65336C1.0892 5.83268 0.671224 5.95203 0.403558 6.18868C0.133832 6.42533 0 6.79368 0 7.29168C0 7.79996 0.133832 8.17037 0.403558 8.40291C0.673283 8.63338 1.0892 8.75068 1.65336 8.75068H8.27502C8.83918 8.75068 9.25716 8.63133 9.52482 8.39468C9.79455 8.15803 9.92838 7.78968 9.92838 7.29168C9.92838 6.7834 9.79455 6.41298 9.52482 6.18045Z" fill="#688DBC"/>
<path d="M9.52482 17.8463C9.2551 17.6158 8.83918 17.4985 8.27502 17.4985H1.65336C1.0892 17.4985 0.671224 17.6179 0.403558 17.8545C0.133832 18.0912 0 18.4595 0 18.9575C0 19.4658 0.133832 19.8362 0.403558 20.0688C0.673283 20.2992 1.0892 20.4165 1.65336 20.4165H8.27502C8.83918 20.4165 9.25716 20.2972 9.52482 20.0605C9.79455 19.8239 9.92838 19.4555 9.92838 18.9575C9.92838 18.4492 9.79455 18.0788 9.52482 17.8463Z" fill="#688DBC"/>
<path d="M22.9308 23.6803C22.6487 23.4498 22.2143 23.3325 21.6234 23.3325H1.73366C1.14273 23.3325 0.708286 23.4518 0.426206 23.6885C0.144127 23.9251 0.00411569 24.2935 0.00411569 24.7915C0.00411569 25.2998 0.144127 25.6702 0.426206 25.9027C0.708286 26.1332 1.14273 26.2505 1.73366 26.2505H21.6234C22.2143 26.2505 22.6487 26.1311 22.9308 25.8945C23.2129 25.6578 23.3529 25.2895 23.3529 24.7915C23.3529 24.2832 23.2108 23.9128 22.9308 23.6803Z" fill="#688DBC"/>
<path d="M124.823 44.096C124.541 43.8655 124.107 43.7482 123.516 43.7482H103.626C103.035 43.7482 102.601 43.8676 102.319 44.1042C102.037 44.3409 101.897 44.7092 101.897 45.2072C101.897 45.7155 102.037 46.0859 102.319 46.3185C102.601 46.5489 103.035 46.6662 103.626 46.6662H123.516C124.107 46.6662 124.541 46.5469 124.823 46.3102C125.105 46.0736 125.245 45.7052 125.245 45.2072C125.245 44.6989 125.105 44.3285 124.823 44.096Z" fill="#688DBC"/>
<path d="M120.162 55.7639C119.886 55.5334 119.458 55.4161 118.879 55.4161H103.599C103.019 55.4161 102.593 55.5355 102.317 55.7721C102.041 56.0088 101.903 56.3771 101.903 56.8751C101.903 57.3834 102.041 57.7538 102.317 57.9864C102.593 58.2168 103.021 58.3341 103.599 58.3341H118.869C119.449 58.3341 119.876 58.2148 120.152 57.9781C120.427 57.7415 120.565 57.3731 120.565 56.8751C120.576 56.3648 120.438 55.9944 120.162 55.7639Z" fill="#688DBC"/>
<path d="M111.419 49.9299C111.15 49.6995 110.734 49.5822 110.17 49.5822H103.548C102.984 49.5822 102.566 49.7015 102.298 49.9382C102.028 50.1748 101.895 50.5432 101.895 51.0412C101.895 51.5495 102.028 51.9199 102.298 52.1524C102.568 52.3829 102.984 52.5002 103.548 52.5002H110.17C110.734 52.5002 111.152 52.3808 111.419 52.1442C111.689 51.9075 111.823 51.5392 111.823 51.0412C111.821 50.5329 111.687 50.1625 111.419 49.9299Z" fill="#688DBC"/>
<path d="M111.419 61.5958C111.15 61.3653 110.734 61.248 110.17 61.248H103.548C102.984 61.248 102.566 61.3674 102.298 61.604C102.028 61.8407 101.895 62.209 101.895 62.707C101.895 63.2153 102.028 63.5857 102.298 63.8182C102.568 64.0487 102.984 64.166 103.548 64.166H110.17C110.734 64.166 111.152 64.0467 111.419 63.81C111.689 63.5734 111.823 63.205 111.823 62.707C111.821 62.1987 111.687 61.8283 111.419 61.5958Z" fill="#688DBC"/>
<path d="M124.823 67.4298C124.541 67.1993 124.107 67.082 123.516 67.082H103.626C103.035 67.082 102.601 67.2013 102.319 67.438C102.037 67.6746 101.897 68.043 101.897 68.541C101.897 69.0493 102.037 69.4197 102.319 69.6522C102.601 69.8827 103.035 70 103.626 70H123.516C124.107 70 124.541 69.8806 124.823 69.644C125.105 69.4073 125.245 69.039 125.245 68.541C125.245 68.0307 125.105 67.6623 124.823 67.4298Z" fill="#688DBC"/>
<path d="M19.6797 70C18.4628 70 17.8554 69.4588 17.8554 68.3743V45.376C17.8554 44.2915 18.4628 43.7503 19.6797 43.7503C20.8965 43.7503 21.5039 44.2915 21.5039 45.376V66.7465H33.5387C34.7555 66.7465 35.3629 67.2878 35.3629 68.3722C35.3629 69.4567 34.7555 69.9979 33.5387 69.9979H19.6797V70Z" fill="#688DBC"/>
<path d="M51.7935 70C51.1964 70 50.7538 69.8683 50.4696 69.6028C50.1855 69.3374 50.0414 68.9278 50.0414 68.3722V45.378C50.0414 44.8101 50.1834 44.3964 50.4696 44.1372C50.7538 43.8779 51.1964 43.7503 51.7935 43.7503C52.4051 43.7503 52.8498 43.8799 53.1278 44.1372C53.4057 44.3964 53.5437 44.8101 53.5437 45.378V68.3702C53.5437 68.9258 53.4037 69.3373 53.1278 69.6008C52.8477 69.8662 52.403 70 51.7935 70Z" fill="#688DBC"/>
<path d="M70.1987 70C69.0972 70 68.5474 69.4588 68.5474 68.3743V45.376C68.5474 44.2915 69.0972 43.7503 70.1987 43.7503C70.7629 43.7503 71.3126 44.0734 71.85 44.7175L87.663 64.7731H86.8373V45.376C86.8373 44.2915 87.3871 43.7503 88.4886 43.7503C89.5902 43.7503 90.1399 44.2915 90.1399 45.376V68.3743C90.1399 69.4588 89.5902 70 88.4886 70C87.8977 70 87.3479 69.6769 86.8373 69.0328L71.0244 48.9772H71.85V68.3743C71.85 69.4567 71.3003 70 70.1987 70Z" fill="#688DBC"/>
</svg>
