<svg width="30" height="30" viewBox="0 0 30 30" fill="none" xmlns="http://www.w3.org/2000/svg">
<path d="M8.82923 3.01105C8.58205 2.76387 8.2468 2.625 7.89723 2.625C4.98546 2.625 2.625 4.98546 2.625 7.89723V10.3841C2.625 11.9758 3.00838 13.5441 3.74271 14.9563C6.09191 19.4739 9.77605 23.1581 14.2937 25.5073C15.7059 26.2416 17.2742 26.625 18.8659 26.625H22.4733C24.7662 26.625 26.625 24.7662 26.625 22.4733C26.625 21.4322 26.1047 20.4599 25.2384 19.8824C24.7822 19.5783 22.8573 18.295 22.6113 18.234C22.3815 18.1771 22.1412 18.1771 21.9114 18.234C21.6654 18.295 19.5664 19.7905 18.9076 20.0832C18.2488 20.3758 17.5049 20.4135 16.82 20.1888C16.5845 20.1116 15.1691 19.4655 14.2144 18.8282C12.4723 17.6653 11.5678 16.7889 10.4218 15.0356C9.90048 14.238 9.35267 13.0702 9.28316 12.8776C8.99933 12.0912 9.10472 10.9257 9.69459 10.1414C10.2845 9.35715 12.0252 7.77023 12.1331 7.43812C12.2281 7.14598 12.2281 6.83129 12.1331 6.53916C12.057 6.30491 8.82923 3.01105 8.82923 3.01105Z" stroke="white" stroke-width="1.5" stroke-miterlimit="1.41421" stroke-linejoin="round"/>
</svg>
