<svg width="100" height="100" viewBox="0 0 100 100" fill="none" xmlns="http://www.w3.org/2000/svg">
<circle cx="50" cy="50" r="50" fill="#688DBC"/>
<path fill-rule="evenodd" clip-rule="evenodd" d="M30.7959 23C30.3563 23 30 23.3515 30 23.7852V69.3259C30 69.7596 30.3563 70.1111 30.7959 70.1111H47.9579C48.3975 70.1111 48.7538 69.7596 48.7538 69.3259C48.7538 68.8923 48.3975 68.5407 47.9579 68.5407H31.5918V24.5704H66.6122V58.861C66.6122 59.2947 66.9686 59.6462 67.4082 59.6462C67.8477 59.6462 68.2041 59.2947 68.2041 58.861V23.7852C68.2041 23.3515 67.8477 23 67.4082 23H30.7959ZM49.102 28.8889C49.102 28.4552 49.4584 28.1037 49.898 28.1037H62.6327C63.0722 28.1037 63.4286 28.4552 63.4286 28.8889C63.4286 29.3225 63.0722 29.6741 62.6327 29.6741H49.898C49.4584 29.6741 49.102 29.3225 49.102 28.8889ZM36.3673 41.4519C36.3673 41.0182 36.7237 40.6667 37.1633 40.6667H62.6327C63.0722 40.6667 63.4286 41.0182 63.4286 41.4519C63.4286 41.8855 63.0722 42.237 62.6327 42.237H37.1633C36.7237 42.237 36.3673 41.8855 36.3673 41.4519ZM49.898 32.0296C49.4584 32.0296 49.102 32.3812 49.102 32.8148C49.102 33.2485 49.4584 33.6 49.898 33.6H62.6327C63.0722 33.6 63.4286 33.2485 63.4286 32.8148C63.4286 32.3812 63.0722 32.0296 62.6327 32.0296H49.898ZM36.3673 46.163C36.3673 45.7293 36.7237 45.3778 37.1633 45.3778H62.6327C63.0722 45.3778 63.4286 45.7293 63.4286 46.163C63.4286 46.5966 63.0722 46.9481 62.6327 46.9481H37.1633C36.7237 46.9481 36.3673 46.5966 36.3673 46.163ZM37.1633 50.0889C36.7237 50.0889 36.3673 50.4404 36.3673 50.8741C36.3673 51.3077 36.7237 51.6593 37.1633 51.6593H62.6327C63.0722 51.6593 63.4286 51.3077 63.4286 50.8741C63.4286 50.4404 63.0722 50.0889 62.6327 50.0889H37.1633ZM58.6531 61.8667C56.4552 61.8667 54.6735 63.6244 54.6735 65.7926C54.6735 67.9608 56.4552 69.7185 58.6531 69.7185C60.8509 69.7185 62.6327 67.9608 62.6327 65.7926C62.6327 63.6244 60.8509 61.8667 58.6531 61.8667ZM53.0816 65.7926C53.0816 63.6996 54.2675 61.8798 56.0126 60.9516L56.4489 59.863L56.4491 59.863L56.0129 60.9514C56.7986 60.5335 57.6978 60.2963 58.6531 60.2963C61.7301 60.2963 64.2245 62.7571 64.2245 65.7926C64.2245 68.8281 61.7301 71.2889 58.6531 71.2889C56.1966 71.2889 54.1115 69.7206 53.3703 67.5436L52.6192 69.4176L52.6185 69.4175L53.3701 67.5429C53.183 66.9931 53.0816 66.4045 53.0816 65.7926ZM58.0964 55.7538C58.2598 55.6439 58.453 55.5852 58.6509 55.5852C58.8487 55.5852 59.0419 55.6439 59.2054 55.7538C59.3688 55.8636 59.4949 56.0193 59.5674 56.2007C59.5802 56.2328 59.5908 56.2656 59.5993 56.299L59.8897 57.4505L59.8904 57.4532C59.938 57.6448 60.0366 57.8202 60.176 57.9614C60.3153 58.1025 60.4903 58.2042 60.6827 58.256C60.8752 58.3077 61.0781 58.3077 61.2706 58.2559C61.4616 58.2045 61.6354 58.1039 61.7743 57.9644L62.6008 57.1054C62.7499 56.9457 62.9491 56.8397 63.1668 56.8047C63.3907 56.7687 63.6203 56.8101 63.8168 56.9217C64.0133 57.0333 64.1646 57.2084 64.2455 57.4171C64.3237 57.6191 64.3314 57.8407 64.2677 58.0471L63.9404 59.1805L63.9399 59.182C63.8849 59.3711 63.8821 59.5712 63.9319 59.7616C63.9818 59.952 64.0823 60.1257 64.223 60.2647C64.3638 60.4036 64.5396 60.5028 64.7321 60.5519C64.9246 60.601 65.127 60.5983 65.3181 60.544L65.3197 60.5436L66.4771 60.2177L66.4919 60.2137C66.7007 60.1592 66.9218 60.1735 67.1215 60.2546C67.3211 60.3356 67.4884 60.4788 67.5979 60.6623C67.7073 60.8457 67.753 61.0593 67.728 61.2707C67.703 61.482 67.6087 61.6796 67.4593 61.8333C67.4513 61.8415 67.4431 61.8496 67.4347 61.8575L66.5574 62.6847C66.4156 62.8215 66.3133 62.9931 66.261 63.1821C66.2085 63.3719 66.2085 63.5722 66.2609 63.7621C66.3134 63.952 66.4164 64.1245 66.5593 64.2616C66.7021 64.3987 66.8794 64.4954 67.0728 64.5418L67.0794 64.5433L67.0794 64.5434L68.2427 64.8327C68.4556 64.8826 68.6456 65.001 68.7827 65.1694C68.9234 65.3421 69 65.5569 69 65.7783C69 65.9997 68.9234 66.2146 68.7827 66.3873C68.6456 66.5556 68.4556 66.6741 68.2427 66.724L67.097 67.009L67.0921 67.0102C66.8984 67.0571 66.7209 67.1543 66.5779 67.2919C66.435 67.4295 66.3318 67.6024 66.2793 67.7927C66.2268 67.983 66.2268 68.1837 66.2794 68.374C66.3315 68.5629 66.4335 68.7347 66.5748 68.8717L67.4508 69.6934C67.456 69.6982 67.4611 69.7032 67.4662 69.7082C67.4698 69.7118 67.4734 69.7154 67.4769 69.719C67.6263 69.8727 67.7206 70.0703 67.7456 70.2817C67.7706 70.493 67.7249 70.7066 67.6155 70.8901C67.506 71.0735 67.3388 71.2167 67.1391 71.2978C66.9393 71.3788 66.7183 71.3932 66.5095 71.3387L66.4947 71.3346L65.3373 71.0088L65.3357 71.0083C65.1446 70.9541 64.9422 70.9514 64.7497 71.0005C64.5572 71.0496 64.3814 71.1487 64.2406 71.2877C64.0999 71.4266 63.9994 71.6003 63.9495 71.7907C63.8997 71.9811 63.9025 72.1813 63.9575 72.3703L63.958 72.3719L64.2853 73.5052C64.349 73.7116 64.3413 73.9333 64.2631 74.1352C64.1823 74.344 64.0309 74.519 63.8344 74.6306C63.6379 74.7422 63.4083 74.7836 63.1844 74.7476C62.9667 74.7126 62.7675 74.6066 62.6184 74.4469L61.7906 73.5866C61.6522 73.446 61.4783 73.3445 61.2869 73.2925C61.0945 73.2403 60.8916 73.2401 60.6991 73.2919C60.5066 73.3437 60.3317 73.4456 60.1927 73.587C60.0536 73.7284 59.9556 73.9042 59.9088 74.096L59.9075 74.1012L59.6186 75.2507C59.5684 75.4611 59.4484 75.6493 59.2773 75.7852C59.1023 75.9242 58.8844 76 58.6597 76C58.4349 76 58.217 75.9242 58.042 75.7852C57.8714 75.6498 57.7516 75.4623 57.7012 75.2525L57.4081 74.1039L57.4065 74.0975C57.3595 73.9062 57.2613 73.7309 57.1225 73.5899C56.9836 73.4489 56.8091 73.3473 56.6171 73.2956C56.4251 73.2439 56.2225 73.2439 56.0305 73.2957C55.8395 73.3472 55.6658 73.4481 55.5273 73.5881L54.6956 74.448C54.5466 74.607 54.3478 74.7127 54.1305 74.7476C53.9066 74.7836 53.6771 74.7422 53.4805 74.6306C53.284 74.519 53.1327 74.344 53.0518 74.1352C52.9734 73.9327 52.9659 73.7103 53.0302 73.5034L53.3609 72.3734L53.3614 72.3716C53.4152 72.1829 53.4171 71.9835 53.3671 71.7937C53.3168 71.6034 53.2161 71.4299 53.0754 71.2909C52.9347 71.152 52.759 71.0527 52.5666 71.0032C52.3744 70.9537 52.1724 70.9557 51.9812 71.009L52.6192 69.4176C52.7364 69.432 52.853 69.454 52.9681 69.4836C53.4348 69.6036 53.8606 69.8444 54.2015 70.1809C54.5424 70.5175 54.7861 70.9377 54.9076 71.3982C54.9623 71.6058 54.9914 71.8183 54.9947 72.0309C55.188 71.9234 55.3947 71.8392 55.6107 71.7809C56.0774 71.655 56.5697 71.6549 57.0364 71.7807C57.5031 71.9064 57.9271 72.1533 58.2642 72.4957C58.4159 72.6497 58.5475 72.8205 58.6568 73.0041C58.7662 72.8198 58.898 72.6483 59.0501 72.4936C59.3876 72.1503 59.8125 71.9027 60.2803 71.7768C60.7481 71.651 61.2415 71.6515 61.709 71.7784C61.9241 71.8367 62.1301 71.9208 62.3225 72.0282C62.3256 71.8165 62.3541 71.6051 62.4082 71.3983C62.529 70.9365 62.7729 70.515 63.1146 70.1777C63.4563 69.8403 63.8833 69.5994 64.3513 69.4801C64.5631 69.4261 64.7797 69.3979 64.9964 69.3954C64.8875 69.2043 64.8024 69 64.7435 68.7867C64.6163 68.3262 64.6163 67.8406 64.7434 67.3801C64.8705 66.9197 65.1201 66.5011 65.4663 66.1678C65.6209 66.019 65.7924 65.8896 65.9766 65.7819C65.7859 65.6725 65.6086 65.5401 65.4491 65.387C65.1024 65.0541 64.8524 64.6357 64.7251 64.1752C64.5979 63.7147 64.598 63.2289 64.7254 62.7685C64.7847 62.5541 64.8707 62.3488 64.9806 62.157C64.7632 62.1546 64.546 62.1264 64.3337 62.0723C63.8657 61.9529 63.4387 61.712 63.097 61.3746C62.7553 61.0373 62.5114 60.6158 62.3906 60.154C62.3363 59.9465 62.3078 59.7343 62.3049 59.5218C62.1118 59.629 61.9052 59.7129 61.6895 59.7709C61.2229 59.8965 60.7306 59.8966 60.2639 59.771C59.7972 59.6455 59.3732 59.3989 59.0356 59.0571C58.887 58.9065 58.7575 58.7398 58.6493 58.5609C58.5415 58.7396 58.4124 58.9062 58.2642 59.0567C57.9271 59.399 57.5031 59.6459 57.0364 59.7717C56.8438 59.8235 56.6469 59.854 56.4491 59.863L57.3252 57.6776C57.3502 57.627 57.3713 57.5744 57.3882 57.5204L58.0964 55.7538ZM57.3885 57.5194L58.0964 55.7538C57.9329 55.8636 57.8068 56.0193 57.7344 56.2007C57.7219 56.2319 57.7115 56.2638 57.7032 56.2963L57.4083 57.4478L57.4083 57.4478L57.4065 57.4549C57.4012 57.4766 57.3952 57.4981 57.3885 57.5194ZM57.3247 57.6786C57.2731 57.7827 57.205 57.8786 57.1225 57.9624C56.9836 58.1034 56.8091 58.205 56.6171 58.2568C56.4251 58.3085 56.2225 58.3084 56.0305 58.2567C55.8395 58.2051 55.6658 58.1042 55.5273 57.9643L54.6955 57.1043C54.5465 56.9453 54.3477 56.8396 54.1305 56.8047C53.9066 56.7687 53.6771 56.8101 53.4805 56.9217C53.2841 57.0333 53.1327 57.2084 53.0518 57.4171C52.9734 57.6196 52.9659 57.842 53.0302 58.0489L53.3614 59.1807C53.4152 59.3694 53.4171 59.5689 53.3671 59.7586C53.3168 59.9489 53.2161 60.1225 53.0754 60.2614C52.9347 60.4004 52.759 60.4997 52.5666 60.5492C52.3743 60.5986 52.1721 60.5966 51.9809 60.5433L51.9804 60.5431L50.8194 60.2175C50.8069 60.214 50.7944 60.2108 50.7817 60.2079C50.5747 60.1605 50.3578 60.1801 50.163 60.2638C49.9682 60.3474 49.8059 60.4907 49.7001 60.6723C49.5943 60.8539 49.5505 61.0641 49.5751 61.2721C49.5997 61.4801 49.6914 61.6748 49.8368 61.8275C49.8466 61.8378 49.8567 61.8478 49.867 61.8575L50.7443 62.6848C50.8861 62.8215 50.9884 62.9931 51.0407 63.1821C51.0932 63.3719 51.0933 63.5722 51.0408 63.7621C50.9883 63.952 50.8853 64.1245 50.7425 64.2616C50.5997 64.3987 50.4223 64.4954 50.2289 64.5418L50.2289 64.5417L50.2217 64.5435L49.0629 64.8328C48.8503 64.8828 48.6604 65.0012 48.5234 65.1694C48.3827 65.3421 48.3061 65.5569 48.3061 65.7783C48.3061 65.9997 48.3827 66.2146 48.5234 66.3873C48.6609 66.556 48.8514 66.6746 49.0648 66.7243L50.2244 67.0095L50.2272 67.0102C50.4209 67.0571 50.5985 67.1543 50.7414 67.2919C50.8844 67.4295 50.9875 67.6024 51.04 67.7927C51.0925 67.983 51.0925 68.1837 51.04 68.374C50.9878 68.563 50.8858 68.7347 50.7445 68.8718L49.8745 69.6878C49.7127 69.835 49.6055 70.0316 49.5702 70.2461C49.5338 70.4666 49.5756 70.6929 49.6885 70.8867C49.8014 71.0805 49.9787 71.23 50.1905 71.31C50.3952 71.3873 50.6198 71.3949 50.8291 71.3322L51.9804 71.0092L52.6185 69.4175C52.5199 69.4054 52.4209 69.3987 52.3217 69.3974C52.4312 69.2058 52.5168 69.0008 52.5759 68.7867C52.703 68.3262 52.703 67.8406 52.5759 67.3801C52.4488 66.9197 52.1993 66.5011 51.853 66.1678C51.6959 66.0166 51.5215 65.8855 51.334 65.7768C51.5214 65.6684 51.6956 65.5377 51.8526 65.387C52.1994 65.0541 52.4493 64.6357 52.5766 64.1752C52.7038 63.7147 52.7038 63.2289 52.5763 62.7685C52.5168 62.5533 52.4305 62.3473 52.32 62.155C52.5378 62.1522 52.7555 62.1235 52.9681 62.0688C53.4348 61.9487 53.8606 61.708 54.2015 61.3714C54.5424 61.0348 54.7861 60.6146 54.9076 60.1541C54.9623 59.9465 54.9914 59.7341 54.9947 59.5214C55.188 59.629 55.3947 59.7132 55.6107 59.7714C55.8847 59.8453 56.1676 59.8759 56.4489 59.863L57.3247 57.6786ZM57.3247 57.6786L57.3885 57.5194L57.3882 57.5204L57.3252 57.6776L57.3247 57.6786ZM60.8852 64.6886C61.1463 64.3397 61.0713 63.8481 60.7177 63.5906C60.364 63.333 59.8657 63.407 59.6046 63.7558L58.1025 65.7628L57.8002 65.0175C57.6369 64.6149 57.1737 64.4191 56.7655 64.5802C56.3574 64.7413 56.159 65.1982 56.3223 65.6009L57.1553 67.6547C57.2626 67.9191 57.5066 68.1055 57.7929 68.1418C58.0793 68.178 58.3631 68.0585 58.5346 67.8293L60.8852 64.6886Z" fill="white"/>
</svg>
