<svg width="100" height="100" viewBox="0 0 100 100" fill="none" xmlns="http://www.w3.org/2000/svg">
<circle cx="50" cy="50" r="50" fill="#688DBC"/>
<path fill-rule="evenodd" clip-rule="evenodd" d="M68.253 27.269C67.2657 26.0015 65.5187 25.8261 63.7906 26.1281C62.0093 26.4394 59.9646 27.2969 58.021 28.493C56.073 29.6919 54.1839 31.2569 52.7266 33.0221C51.4348 34.5867 50.4478 36.3512 50.102 38.1899H50C50 38.1641 49.9987 38.1381 49.9961 38.1121C49.6368 34.5155 46.954 31.1537 43.8608 29.2385C40.7963 27.341 36.9403 26.6527 34.3239 29.0794C34.0945 29.2889 33.91 29.5487 33.7972 29.8472C33.6834 30.1486 33.649 30.4733 33.7013 30.794C33.7533 31.1139 33.8877 31.4077 34.0809 31.6571C34.2734 31.9055 34.5195 32.1042 34.7933 32.2486C34.8035 32.254 34.8138 32.2591 34.8242 32.264L47.4708 38.1899H44.8065C44.7493 38.1899 44.6936 38.1965 44.6402 38.2091L27.7414 38.2208C27.3319 38.2211 27 38.5622 27 38.9828V40.7785V43.2243V44.157C27 44.1638 27.0001 44.1706 27.0003 44.1773C27.0131 44.6726 27.2608 45.0988 27.6133 45.3837C27.962 45.6655 28.403 45.8061 28.8385 45.809L28.8385 45.8091L28.8443 45.8091L43.7409 45.7897C43.8569 45.7896 43.9667 45.762 44.0645 45.7131V72.4762H32.562C32.4194 72.4762 32.3064 72.4277 32.2435 72.3755C32.214 72.351 32.2013 72.3307 32.1966 72.3213C32.1947 72.3176 32.1939 72.3152 32.1935 72.314V71.4085V47.3329C32.1935 46.9121 31.8614 46.571 31.4516 46.571C31.0419 46.571 30.7097 46.9121 30.7097 47.3329V71.4085V72.3154C30.7097 72.8206 30.9523 73.2628 31.3102 73.5602C31.6638 73.854 32.1156 74 32.562 74H67.438L67.4405 74C67.887 73.9984 68.3383 73.8512 68.6913 73.5566C69.0486 73.2585 69.2903 72.8162 69.2903 72.3115V71.4085V47.3329C69.2903 46.9121 68.9581 46.571 68.5484 46.571C68.1386 46.571 67.8064 46.9121 67.8064 47.3329V71.4085V72.3105C67.8062 72.3117 67.8053 72.3144 67.8031 72.3188C67.7982 72.3286 67.7853 72.3492 67.7556 72.374C67.6926 72.4266 67.5796 72.4754 67.4367 72.4762H55.9355V45.7131C56.0335 45.7622 56.1437 45.7897 56.2601 45.7897H71.1471C71.5886 45.7897 72.0365 45.6484 72.3894 45.3619C72.7465 45.0721 72.9947 44.6372 73 44.1342H73V44.1261V43.2321V40.7901V38.9518C73 38.7496 72.9218 38.5558 72.7825 38.4129C72.6433 38.27 72.4544 38.1897 72.2576 38.1899L55.3192 38.2017C55.2765 38.1939 55.233 38.1899 55.1892 38.1899H53.3565C55.11 37.0869 56.0665 36.5313 57.0644 36.1483C58.1249 35.7414 59.2193 35.5326 61.3699 35.1223L61.3699 35.1223L61.3701 35.1223L61.371 35.1221L61.372 35.1219C61.9877 35.0045 62.69 34.8705 63.5027 34.7106L63.5127 34.7086L63.5277 34.7052L63.3631 33.9623C63.5277 34.7052 63.528 34.7052 63.5283 34.7051L63.529 34.705L63.5309 34.7045L63.5369 34.7031L63.5571 34.6982C63.5742 34.694 63.5983 34.688 63.6289 34.6802C63.6901 34.6645 63.7774 34.6413 63.8861 34.6105C64.1033 34.549 64.4073 34.4565 64.7605 34.3312C65.4601 34.0829 66.3826 33.6954 67.2063 33.1467C68.0147 32.6082 68.8317 31.8456 69.1521 30.8071C69.491 29.7086 69.2161 28.5093 68.2538 27.2699L68.253 27.269ZM28.4839 39.7442L44.0645 39.7333V44.3425C43.9662 44.2933 43.8557 44.2657 43.739 44.2659L28.8459 44.2852C28.7047 44.2837 28.5932 44.2365 28.531 44.1862C28.5016 44.1624 28.4892 44.1432 28.4851 44.1353L28.4839 44.1329V43.2243V40.7785V39.7442ZM56.2601 44.2659C56.1437 44.2659 56.0335 44.2934 55.9355 44.3425V39.7251L71.5161 39.7142V40.7901V43.2321V44.1131L71.515 44.1154C71.511 44.1231 71.4989 44.1424 71.4693 44.1664C71.4061 44.2177 71.2918 44.2659 71.1472 44.2659H56.2601ZM54.4516 39.7261L45.5484 39.7323V72.4762H54.4516V39.7261ZM63.2133 33.2158L63.2088 33.2169C62.454 33.3653 61.7863 33.4924 61.1881 33.6063C58.996 34.0237 57.737 34.2635 56.545 34.7209C55.2806 35.2061 54.077 35.9398 51.8751 37.3362C52.2821 36.2132 52.9668 35.0875 53.8584 34.0076C55.1942 32.3896 56.9513 30.9278 58.7838 29.8001C60.6206 28.6697 62.4907 27.901 64.0395 27.6303C65.6409 27.3505 66.6392 27.6373 67.0939 28.2204C67.8435 29.186 67.8858 29.8662 67.7375 30.3469C67.5707 30.8876 67.0961 31.4037 66.3988 31.8683C65.7168 32.3226 64.9196 32.6625 64.2759 32.8909C63.9575 33.0039 63.684 33.087 63.4915 33.1416C63.3954 33.1688 63.3198 33.1888 63.2694 33.2017C63.2442 33.2082 63.2253 33.2129 63.2133 33.2158ZM43.0946 30.5435C40.2281 28.7686 37.194 28.4687 35.3165 30.2121L35.3108 30.2174L35.3108 30.2173C35.2402 30.2816 35.2006 30.3455 35.1806 30.3984C35.1612 30.4498 35.1574 30.4974 35.1648 30.5427C35.1723 30.5889 35.1939 30.6461 35.2421 30.7084C35.2891 30.7689 35.36 30.8322 35.4581 30.8861L48.2395 36.8751C47.4927 34.3894 45.489 32.026 43.0946 30.5435Z" fill="white"/>
</svg>
