<svg width="100" height="100" viewBox="0 0 100 100" fill="none" xmlns="http://www.w3.org/2000/svg">
<circle cx="50" cy="50" r="50" fill="#688DBC"/>
<path fill-rule="evenodd" clip-rule="evenodd" d="M53.7469 25.0948C53.1011 24.4925 51.902 24.2692 50.7696 25.3262L50.2281 25.8316L49.6862 25.3265C48.5688 24.2847 47.4144 24.5052 46.8084 25.0698C46.495 25.3619 46.319 25.7475 46.3236 26.1535C46.3282 26.5508 46.5078 27.0613 47.0832 27.5971L47.0835 27.5974L50.3568 30.6489L53.4901 27.7192L53.4924 27.7171C54.0802 27.1719 54.2629 26.648 54.2647 26.2349C54.2665 25.8114 54.0791 25.4047 53.7469 25.0948ZM54.5737 28.8804C55.4277 28.0877 55.849 27.1639 55.8529 26.2416C55.8568 25.3292 55.4508 24.5123 54.8301 23.9333C53.6981 22.8775 51.8513 22.5963 50.2273 23.7263C48.6367 22.6221 46.8343 22.8748 45.7257 23.9079C45.1177 24.4744 44.7252 25.2762 44.7355 26.1716C44.7458 27.0756 45.1643 27.9804 46.0005 28.7591C46.0006 28.7592 46.0006 28.7592 46.0007 28.7592C46.0007 28.7593 46.0008 28.7594 46.0009 28.7595L49.8161 32.3162L50.3584 32.8217L50.8999 32.3154L54.5725 28.8815C54.5729 28.8811 54.5733 28.8807 54.5737 28.8804ZM42.2327 35.0036C41.8553 35.2901 41.6675 35.6206 41.5948 35.9973C41.5176 36.3975 41.5623 36.8997 41.751 37.5082C42.132 38.7373 43.0282 40.1779 44.1222 41.6321C45.1445 42.991 46.2904 44.2989 47.2426 45.3858C47.3 45.4513 47.3567 45.5161 47.4126 45.58C47.8988 46.1353 48.3351 46.6368 48.6552 47.0403C48.8149 47.2416 48.9583 47.4343 49.0683 47.6075C49.1581 47.7489 49.2996 47.9869 49.3361 48.2512C49.3962 48.6856 49.0928 49.0865 48.6583 49.1466C48.2489 49.2033 47.8692 48.9369 47.7766 48.5423C47.7689 48.5276 47.7539 48.5004 47.7275 48.4588C47.6612 48.3543 47.5572 48.2117 47.4109 48.0274C47.1193 47.6597 46.7099 47.1884 46.2177 46.6262C46.1597 46.5599 46.1007 46.4926 46.0408 46.4242C45.0943 45.3439 43.9123 43.995 42.853 42.5869C41.7366 41.1029 40.6999 39.4813 40.234 37.9785C39.9992 37.2212 39.8919 36.4401 40.0353 35.6965C40.1832 34.9302 40.5879 34.2569 41.276 33.7359L41.2796 33.7331L41.2796 33.7331C42.296 32.9724 43.5437 33.3865 44.5667 34.0067C45.6492 34.6629 46.8612 35.7673 48.1206 37.1078C50.651 39.8011 53.5413 43.6329 56.2062 47.3212C57.1046 48.5645 57.9017 49.6173 58.6096 50.5525C58.8111 50.8186 59.0054 51.0752 59.1927 51.3239C60.0325 52.4391 60.7403 53.4058 61.3039 54.3371C62.4603 56.2483 63 57.9978 63 60.6372C63 62.3786 62.4002 64.1891 61.5264 65.8967C60.6489 67.6117 59.4683 69.2746 58.2427 70.7358C57.0162 72.1981 55.73 73.4757 54.6276 74.4189C54.0769 74.8901 53.5633 75.2852 53.1189 75.5803C52.7009 75.8577 52.2635 76.1022 51.8845 76.1868C51.4565 76.2824 51.032 76.0128 50.9364 75.5848C50.8409 75.1568 51.1104 74.7323 51.5384 74.6367C51.6099 74.6208 51.8382 74.5241 52.2405 74.257C52.6163 74.0076 53.0775 73.6549 53.5951 73.2121C54.6292 72.3273 55.854 71.1122 57.0259 69.7151C58.1987 68.3169 59.3039 66.7535 60.1125 65.1732C60.925 63.5854 61.4118 62.0315 61.4118 60.6372C61.4118 58.2852 60.9501 56.8203 59.945 55.1594C59.4278 54.3046 58.7648 53.3958 57.924 52.2794C57.7403 52.0355 57.5485 51.7822 57.3486 51.5181C56.6395 50.5815 55.8287 49.5105 54.9189 48.2515L54.9188 48.2514C52.2539 44.563 49.4162 40.8064 46.9631 38.1953C45.7308 36.8837 44.6374 35.9068 43.7434 35.3649C42.7928 34.7886 42.3927 34.8851 42.2327 35.0036ZM54.254 41.3036L54.254 41.3034L54.254 41.3033L54.2545 41.3006L54.257 41.2861C54.2593 41.2727 54.263 41.2518 54.2682 41.2239C54.2784 41.1683 54.2943 41.085 54.3161 40.979C54.3597 40.7666 54.4268 40.4638 54.52 40.1079C54.7078 39.39 54.9946 38.4816 55.3945 37.6649C55.805 36.8264 56.2808 36.1974 56.7894 35.8998C57.0277 35.7603 57.2706 35.6946 57.5352 35.7075C57.8041 35.7206 58.1468 35.8177 58.5737 36.0856C58.7548 36.2045 58.891 36.3746 58.9654 36.5701C59.0403 36.7669 59.0497 36.9812 58.9925 37.1831L58.9925 37.1831L58.9908 37.1891C58.1276 40.3334 57.7792 42.9397 57.6472 44.768C57.5812 45.6822 57.5693 46.402 57.5742 46.8977C57.5767 47.1456 57.5834 47.3374 57.5897 47.4695C57.5928 47.5356 57.5958 47.5867 57.5981 47.6224L57.601 47.6644L57.602 47.6766L57.6023 47.6805L57.6024 47.6819L57.6024 47.6825C57.6025 47.6827 57.6025 47.6829 58.3939 47.6176L57.6025 47.6829C57.6385 48.12 58.0221 48.4451 58.4592 48.4091C58.8962 48.373 59.2212 47.9897 59.1854 47.5527L59.1853 47.5524L59.185 47.5473L59.183 47.5191C59.1813 47.4926 59.1788 47.4509 59.1761 47.3944C59.1708 47.2814 59.1647 47.1093 59.1624 46.8819C59.1579 46.4269 59.1686 45.7505 59.2313 44.8823C59.3566 43.1464 59.6894 40.6446 60.5217 37.6123C60.6708 37.0825 60.6456 36.5196 60.4497 36.0051C60.2535 35.4897 59.8972 35.0513 59.4345 34.7509L59.4345 34.7508L59.4253 34.745C58.8178 34.3623 58.2118 34.1503 57.6124 34.1211C57.0074 34.0917 56.4619 34.2512 55.9872 34.529C55.0699 35.0659 54.422 36.0394 53.968 36.9665C53.5034 37.9155 53.1849 38.9361 52.9835 39.7058C52.882 40.0936 52.8086 40.4243 52.7603 40.6594C52.7361 40.777 52.7182 40.8711 52.7061 40.9367C52.7001 40.9695 52.6955 40.9953 52.6924 41.0134L52.6887 41.0347L52.6876 41.0409L52.6873 41.0428L52.6872 41.0435C52.6872 41.0438 52.6871 41.044 53.4706 41.1737L52.6871 41.044C52.6155 41.4767 52.9083 41.8855 53.341 41.9571C53.7735 42.0287 54.1823 41.7361 54.254 41.3036ZM44.9302 53.6346C44.9298 53.6364 44.9293 53.6382 44.9288 53.6399L44.9287 53.6404C44.9287 53.6403 44.9289 53.6398 44.9291 53.6389L44.9297 53.6368L44.93 53.6354L44.9302 53.6346ZM55.269 58.623C55.2487 58.6018 55.221 58.5706 55.186 58.5264C55.0409 58.3433 54.8591 58.0537 54.6361 57.657C54.4196 57.2718 54.1832 56.8203 53.922 56.3213L53.9115 56.3012C53.6483 55.7985 53.3626 55.2532 53.0593 54.7064C52.4577 53.6216 51.762 52.4838 50.9863 51.6099C50.2326 50.7608 49.2621 50 48.097 50C46.2258 50 45.0308 50.7741 44.3157 51.5901C43.9668 51.9882 43.7408 52.3853 43.6011 52.6848C43.5309 52.8352 43.4815 52.9632 43.4485 53.0575C43.432 53.1047 43.4196 53.1437 43.4107 53.1732C43.4062 53.1879 43.4026 53.2003 43.3999 53.2101L43.3963 53.2229L43.395 53.2279L43.3944 53.23L43.3942 53.2309C43.394 53.2314 43.3939 53.2318 44.1622 53.4328L43.3939 53.2318C43.3567 53.3741 43.3605 53.5175 43.398 53.6494C42.6095 53.7298 41.9586 53.9559 41.4289 54.2906C40.7583 54.7143 40.3331 55.2796 40.068 55.8291C39.8057 56.3727 39.697 56.9058 39.6519 57.295C39.6332 57.4565 39.625 57.5971 39.6219 57.7086C39.4374 57.6948 39.2494 57.6985 39.0585 57.7228C38.3784 57.8093 37.7531 58.1459 37.1957 58.7081C36.0455 59.8682 35.8412 61.3335 36.1006 62.7455C36.3554 64.1324 37.0642 65.5409 37.848 66.7683C38.6384 68.0061 39.5419 69.1161 40.2427 69.9125C40.5943 70.312 40.8974 70.6355 41.1137 70.8602C41.2219 70.9726 41.3085 71.0604 41.3687 71.1207C41.3988 71.1509 41.4224 71.1742 41.4387 71.1903L41.4578 71.2091L41.4631 71.2143L41.4647 71.2159L41.4653 71.2164C41.4655 71.2166 41.4656 71.2167 42.0189 70.6471L41.4656 71.2167C41.7803 71.5223 42.283 71.5149 42.5886 71.2003C42.8941 70.8858 42.8868 70.3831 42.5723 70.0776M42.5722 70.0774L42.5718 70.077L42.5686 70.0739L42.5539 70.0594C42.5405 70.0462 42.52 70.0259 42.493 69.9989C42.439 69.9448 42.3591 69.8638 42.2579 69.7587C42.0555 69.5484 41.7686 69.2424 41.435 68.8633C40.7656 68.1025 39.9183 67.0593 39.1866 65.9135C38.4482 64.7572 37.8635 63.5513 37.6627 62.4585C37.4665 61.3909 37.6445 60.5113 38.3236 59.8263C38.6808 59.466 38.9941 59.332 39.259 59.2983C39.5318 59.2636 39.8461 59.3236 40.2174 59.5126C40.991 59.9063 41.8202 60.7594 42.6394 61.8146C43.2401 62.5884 43.7853 63.402 44.2714 64.1274C44.4405 64.3797 44.6025 64.6214 44.7571 64.847C45.0431 65.2642 45.3242 65.6562 45.5726 65.9206C45.688 66.0434 45.8593 66.2088 46.0734 66.3108C46.1879 66.3654 46.3634 66.4255 46.5765 66.4095C46.8106 66.3921 47.0144 66.2883 47.1643 66.1364C47.4724 65.8242 47.4691 65.3214 47.157 65.0133C47.0257 64.8837 46.8606 64.8092 46.6905 64.7896C46.5403 64.6201 46.3352 64.3402 46.0671 63.949C45.9291 63.7477 45.7783 63.5226 45.6165 63.2812C45.1246 62.5471 44.5321 61.6627 43.8939 60.8406C43.112 59.8334 42.1811 58.8091 41.1603 58.2182C41.1991 58.116 41.2172 58.0041 41.2099 57.8881C41.21 57.8887 41.21 57.8888 41.2099 57.8882L41.2099 57.8878C41.2099 57.8879 41.2099 57.888 41.2099 57.888C41.2098 57.8869 41.2098 57.8858 41.2097 57.8847L41.2098 57.8854L41.2098 57.8866L41.2099 57.8878L41.2093 57.8733C41.2089 57.8578 41.2083 57.831 41.2087 57.7946C41.2096 57.7216 41.2141 57.6117 41.2296 57.4777C41.2611 57.2057 41.3353 56.8572 41.4984 56.5193C41.6587 56.1871 41.9014 55.8708 42.2773 55.6333C42.6527 55.3961 43.2123 55.2051 44.0587 55.2051C44.7187 55.2051 45.4191 55.5805 46.1629 56.329C46.8975 57.0683 47.5754 58.0727 48.186 59.1046C48.4888 59.6164 48.7692 60.1247 49.0289 60.6C49.0684 60.6723 49.1076 60.7441 49.1463 60.8153C49.3594 61.2059 49.5606 61.575 49.7424 61.8875C49.949 62.2425 50.168 62.5919 50.386 62.8294C50.4866 62.9391 50.6633 63.1119 50.9117 63.2009C51.051 63.2508 51.2311 63.2807 51.4302 63.239C51.6318 63.1969 51.7906 63.0945 51.9051 62.9806C52.216 62.6712 52.2173 62.1684 51.908 61.8575C51.7814 61.7303 51.6224 61.6549 51.4574 61.6314C51.3723 61.5138 51.2595 61.3368 51.1152 61.0889C50.9455 60.7971 50.7569 60.4512 50.5432 60.0595C50.5039 59.9874 50.4638 59.9137 50.4227 59.8386C50.1617 59.3608 49.8704 58.8324 49.5528 58.2958C48.9226 57.2307 48.165 56.0905 47.2895 55.2095C46.6202 54.536 45.8208 53.9527 44.9018 53.7221C44.9122 53.6955 44.9212 53.6681 44.9288 53.6399L44.9308 53.6332C44.9336 53.624 44.9391 53.6063 44.9479 53.5814C44.9653 53.5314 44.9952 53.4532 45.0404 53.3563C45.1315 53.161 45.2809 52.8984 45.5101 52.6369C45.9513 52.1334 46.7237 51.5882 48.097 51.5882C48.5541 51.5882 49.1217 51.9018 49.7985 52.6642C50.4533 53.4019 51.0804 54.4128 51.6704 55.4767C51.963 56.0043 52.2403 56.5334 52.5044 57.0379L52.5219 57.0712C52.7775 57.5595 53.0233 58.0291 53.2516 58.4352C53.4815 58.8443 53.7139 59.2261 53.9415 59.5131C54.0548 59.656 54.1896 59.8049 54.346 59.9241C54.4947 60.0374 54.7403 60.1832 55.0588 60.1832C55.4974 60.1832 55.8529 59.8276 55.8529 59.389C55.8529 59.0232 55.6056 58.7152 55.269 58.623C55.2894 58.6445 55.3023 58.6558 55.3078 58.6601C55.3082 58.6605 55.3086 58.6607 55.3089 58.661C55.3118 58.6632 55.3113 58.6626 55.3078 58.6601M51.5719 61.7719C51.5561 61.7591 51.5144 61.7297 51.4474 61.7057C51.3704 61.6782 51.2492 61.6543 51.1052 61.6844C50.9588 61.715 50.8516 61.7883 50.7849 61.8547C50.9686 61.6719 51.2193 61.5976 51.4574 61.6314C51.4959 61.6846 51.5287 61.7256 51.5561 61.7555C51.5629 61.7629 51.5681 61.7682 51.5719 61.7719ZM51.5719 61.7719C51.5767 61.7758 51.5791 61.7781 51.5792 61.7784C51.5792 61.7786 51.5768 61.7766 51.5719 61.7719ZM44.9287 53.6404L44.9287 53.6404L44.9287 53.6404ZM37.7409 68.7877C38.0187 68.4708 38.0009 67.9882 37.6941 67.6927C37.3782 67.3885 36.8755 67.3979 36.5713 67.7138L37.1395 68.261C36.5713 67.7138 36.5705 67.7146 36.5698 67.7154L36.5682 67.7171L36.5649 67.7206L36.5578 67.7282C36.5528 67.7336 36.5473 67.7397 36.5415 67.7463C36.5297 67.7597 36.5163 67.7756 36.5015 67.794C36.472 67.831 36.4371 67.8785 36.3996 67.9369C36.3244 68.054 36.2396 68.214 36.1675 68.4201C36.0214 68.8373 35.937 69.4151 36.0576 70.1664C36.2957 71.6499 37.3256 73.7778 40.1925 76.7566C40.4967 77.0726 40.9994 77.0822 41.3154 76.778C41.6314 76.4739 41.641 75.9712 41.3369 75.6552C38.5709 72.7814 37.7901 70.9387 37.6257 69.9147C37.5451 69.4123 37.6114 69.1022 37.6665 68.9449C37.6949 68.8637 37.7233 68.8149 37.7361 68.7949C37.738 68.7919 37.7396 68.7895 37.7409 68.7877Z" fill="white"/>
</svg>
