<svg width="100" height="100" viewBox="0 0 100 100" fill="none" xmlns="http://www.w3.org/2000/svg">
<circle cx="50" cy="50" r="50" fill="#688DBC"/>
<path fill-rule="evenodd" clip-rule="evenodd" d="M63.0469 22.8C63.0469 22.3582 62.6901 22 62.25 22C61.8099 22 61.4531 22.3582 61.4531 22.8V28.4C61.4531 28.8418 61.8099 29.2 62.25 29.2C62.6901 29.2 63.0469 28.8418 63.0469 28.4V22.8ZM45.5156 33.6C45.5156 33.8209 45.3372 34 45.1172 34C44.8971 34 44.7188 33.8209 44.7188 33.6C44.7188 33.3791 44.8971 33.2 45.1172 33.2C45.3372 33.2 45.5156 33.3791 45.5156 33.6ZM45.1172 32.4C44.457 32.4 43.9219 32.9373 43.9219 33.6C43.9219 34.2627 44.457 34.8 45.1172 34.8C45.7773 34.8 46.3125 34.2627 46.3125 33.6C46.3125 32.9373 45.7773 32.4 45.1172 32.4ZM32.7656 58C32.7656 57.5582 33.1224 57.2 33.5625 57.2H49.5C49.9401 57.2 50.2969 57.5582 50.2969 58V77.2C50.2969 77.6418 49.9401 78 49.5 78H33.5625C33.1224 78 32.7656 77.6418 32.7656 77.2V58ZM50.9883 64.4C50.9883 63.9582 51.3451 63.6 51.7852 63.6H61.3477C61.7878 63.6 62.1446 63.9582 62.1446 64.4V77.2C62.1446 77.6418 61.7878 78 61.3477 78H51.7852C51.3451 78 50.9883 77.6418 50.9883 77.2C50.9883 76.7582 51.3451 76.4 51.7852 76.4H60.5508V65.2H51.7852C51.3451 65.2 50.9883 64.8418 50.9883 64.4ZM37.5469 61.6C37.5469 61.8209 37.3685 62 37.1484 62C36.9284 62 36.75 61.8209 36.75 61.6C36.75 61.3791 36.9284 61.2 37.1484 61.2C37.3685 61.2 37.5469 61.3791 37.5469 61.6ZM48.7031 58.8H34.3594V76.4H48.7031V58.8ZM37.1484 60.4C36.4883 60.4 35.9531 60.9373 35.9531 61.6C35.9531 62.2627 36.4883 62.8 37.1484 62.8C37.8086 62.8 38.3438 62.2627 38.3438 61.6C38.3438 60.9373 37.8086 60.4 37.1484 60.4ZM45.9141 62C46.1341 62 46.3125 61.8209 46.3125 61.6C46.3125 61.3791 46.1341 61.2 45.9141 61.2C45.694 61.2 45.5156 61.3791 45.5156 61.6C45.5156 61.8209 45.694 62 45.9141 62ZM44.7188 61.6C44.7188 60.9373 45.2539 60.4 45.9141 60.4C46.5742 60.4 47.1094 60.9373 47.1094 61.6C47.1094 62.2627 46.5742 62.8 45.9141 62.8C45.2539 62.8 44.7188 62.2627 44.7188 61.6ZM28.3828 51.6C28.6029 51.6 28.7812 51.4209 28.7812 51.2C28.7812 50.9791 28.6029 50.8 28.3828 50.8C28.1628 50.8 27.9844 50.9791 27.9844 51.2C27.9844 51.4209 28.1628 51.6 28.3828 51.6ZM27.1875 51.2C27.1875 50.5373 27.7227 50 28.3828 50C29.043 50 29.5781 50.5373 29.5781 51.2C29.5781 51.8627 29.043 52.4 28.3828 52.4C27.7227 52.4 27.1875 51.8627 27.1875 51.2ZM40.5352 70C40.5352 69.4477 40.9811 69 41.5312 69C42.0814 69 42.5273 69.4477 42.5273 70C42.5273 70.5523 42.0814 71 41.5312 71C40.9811 71 40.5352 70.5523 40.5352 70ZM41.5312 67.8C40.321 67.8 39.3398 68.785 39.3398 70C39.3398 71.215 40.321 72.2 41.5312 72.2C42.7415 72.2 43.7227 71.215 43.7227 70C43.7227 68.785 42.7415 67.8 41.5312 67.8ZM41.5312 66.8C39.7708 66.8 38.3438 68.2327 38.3438 70C38.3438 71.7673 39.7708 73.2 41.5312 73.2C43.2917 73.2 44.7188 71.7673 44.7188 70C44.7188 68.2327 43.2917 66.8 41.5312 66.8ZM36.75 70C36.75 67.349 38.8906 65.2 41.5312 65.2C44.1719 65.2 46.3125 67.349 46.3125 70C46.3125 72.651 44.1719 74.8 41.5312 74.8C38.8906 74.8 36.75 72.651 36.75 70ZM26.5273 69.3373C27.1251 68.7371 27.9359 68.4 28.7812 68.4C29.2214 68.4 29.5781 68.0418 29.5781 67.6C29.5781 67.1582 29.2214 66.8 28.7812 66.8C27.5132 66.8 26.2971 67.3057 25.4004 68.2059C24.5037 69.1061 24 70.327 24 71.6C24 72.873 24.5037 74.0939 25.4004 74.9941C26.2971 75.8943 27.5132 76.4 28.7812 76.4C29.2214 76.4 29.5781 76.0418 29.5781 75.6C29.5781 75.1582 29.2214 74.8 28.7812 74.8C27.9359 74.8 27.1251 74.4629 26.5273 73.8627C25.9296 73.2626 25.5938 72.4487 25.5938 71.6C25.5938 70.7513 25.9296 69.9374 26.5273 69.3373ZM43.7596 35.1161C44.0258 35.468 43.9575 35.9698 43.607 36.2371C42.2366 37.282 41.5312 38.6443 41.5312 40C41.5312 41.3557 42.2366 42.718 43.607 43.7629C43.9575 44.0302 44.0258 44.532 43.7596 44.8839C43.4934 45.2357 42.9935 45.3043 42.643 45.0371C40.9519 43.7475 39.9375 41.9445 39.9375 40C39.9375 38.0555 40.9519 36.2525 42.643 34.9629C42.9935 34.6957 43.4934 34.7643 43.7596 35.1161ZM38.5064 49.6839C38.7726 50.0357 39.2725 50.1043 39.623 49.8371C39.9735 49.5698 40.0418 49.068 39.7756 48.7161C38.4911 47.0184 36.6951 46 34.7582 46C32.8213 46 31.0253 47.0184 29.7408 48.7161C29.4746 49.068 29.5429 49.5698 29.8934 49.8371C30.2439 50.1043 30.7438 50.0357 31.01 49.6839C32.0509 48.3081 33.4078 47.6 34.7582 47.6C36.1086 47.6 37.4655 48.3081 38.5064 49.6839ZM29.5781 70.8C29.3668 70.8 29.1641 70.8843 29.0146 71.0343C28.8652 71.1843 28.7812 71.3878 28.7812 71.6C28.7812 71.8122 28.8652 72.0157 29.0146 72.1657C29.1641 72.3157 29.3668 72.4 29.5781 72.4C30.0182 72.4 30.375 72.7582 30.375 73.2C30.375 73.6418 30.0182 74 29.5781 74C28.9441 74 28.336 73.7471 27.8877 73.2971C27.4394 72.847 27.1875 72.2365 27.1875 71.6C27.1875 70.9635 27.4394 70.353 27.8877 69.9029C28.336 69.4529 28.9441 69.2 29.5781 69.2C30.0182 69.2 30.375 69.5582 30.375 70C30.375 70.4418 30.0182 70.8 29.5781 70.8ZM66.2595 68.4015C66.6668 68.3886 67.073 68.4604 67.4542 68.6133C67.8355 68.7662 68.1848 68.9974 68.4809 69.2945C68.777 69.5916 69.0138 69.9486 69.1759 70.3449C69.338 70.7413 69.4219 71.1682 69.4219 71.6C69.4219 72.0318 69.338 72.4587 69.1759 72.8551C69.0138 73.2514 68.777 73.6084 68.4809 73.9055C68.1848 74.2026 67.8355 74.4338 67.4542 74.5867C67.073 74.7396 66.6668 74.8114 66.2595 74.7985C65.8196 74.7846 65.4518 75.1313 65.4379 75.5729C65.424 76.0145 65.7694 76.3838 66.2093 76.3977C66.8368 76.4176 67.4613 76.3068 68.0454 76.0726C68.6295 75.8384 69.1605 75.4858 69.6076 75.0372C70.0547 74.5886 70.4088 74.053 70.6502 73.4628C70.8916 72.8727 71.0156 72.2393 71.0156 71.6C71.0156 70.9607 70.8916 70.3273 70.6502 69.7372C70.4088 69.147 70.0547 68.6114 69.6076 68.1628C69.1605 67.7142 68.6295 67.3616 68.0454 67.1274C67.4613 66.8932 66.8368 66.7824 66.2093 66.8023C65.7694 66.8162 65.424 67.1855 65.4379 67.6271C65.4518 68.0687 65.8196 68.4154 66.2595 68.4015ZM64.6413 69.967C64.6594 69.5256 65.0306 69.1825 65.4703 69.2007C66.0941 69.2265 66.6902 69.483 67.132 69.9265C67.5748 70.3711 67.8281 70.97 67.8281 71.6C67.8281 72.23 67.5748 72.8289 67.132 73.2735C66.6902 73.717 66.0941 73.9735 65.4703 73.9993C65.0306 74.0175 64.6594 73.6744 64.6413 73.233C64.6232 72.7915 64.9649 72.4189 65.4047 72.4007C65.6386 72.391 65.8529 72.2948 66.0051 72.1421C66.1561 71.9904 66.2344 71.7956 66.2344 71.6C66.2344 71.4044 66.1561 71.2096 66.0051 71.0579C65.8529 70.9052 65.6386 70.809 65.4047 70.7993C64.9649 70.7811 64.6232 70.4085 64.6413 69.967ZM59.0625 67.2C59.0625 67.4209 58.8841 67.6 58.6641 67.6C58.444 67.6 58.2656 67.4209 58.2656 67.2C58.2656 66.9791 58.444 66.8 58.6641 66.8C58.8841 66.8 59.0625 66.9791 59.0625 67.2ZM58.6641 66C58.0039 66 57.4688 66.5373 57.4688 67.2C57.4688 67.8627 58.0039 68.4 58.6641 68.4C59.3242 68.4 59.8594 67.8627 59.8594 67.2C59.8594 66.5373 59.3242 66 58.6641 66ZM55.875 70.8C54.9948 70.8 54.2812 71.5163 54.2812 72.4C54.2812 73.2837 54.9948 74 55.875 74C56.7552 74 57.4688 73.2837 57.4688 72.4C57.4688 71.5163 56.7552 70.8 55.875 70.8ZM52.6875 72.4C52.6875 70.6327 54.1146 69.2 55.875 69.2C57.6354 69.2 59.0625 70.6327 59.0625 72.4C59.0625 74.1673 57.6354 75.6 55.875 75.6C54.1146 75.6 52.6875 74.1673 52.6875 72.4ZM62.25 40.4C62.6901 40.4 63.0469 40.7582 63.0469 41.2V55.6C63.0469 56.0418 62.6901 56.4 62.25 56.4C61.8099 56.4 61.4531 56.0418 61.4531 55.6V41.2C61.4531 40.7582 61.8099 40.4 62.25 40.4ZM32.4835 38.1893C32.1475 37.9039 31.6447 37.946 31.3604 38.2832C31.0761 38.6205 31.118 39.1253 31.454 39.4107L41.8134 48.2107C42.1494 48.4961 42.6522 48.454 42.9364 48.1168C43.2207 47.7795 43.1788 47.2747 42.8429 46.9893L32.4835 38.1893ZM58.091 39.1002C58.3659 39.4453 58.3102 39.9487 57.9666 40.2247L53.9822 43.4247C53.6385 43.7007 53.137 43.6448 52.8621 43.2998C52.5872 42.9547 52.6429 42.4513 52.9866 42.1753L56.9709 38.9753C57.3146 38.6993 57.8161 38.7552 58.091 39.1002ZM71.5134 27.4247C71.8571 27.1487 71.9128 26.6453 71.6379 26.3002C71.3629 25.9552 70.8615 25.8993 70.5178 26.1753L66.5334 29.3753C66.1898 29.6513 66.1341 30.1547 66.409 30.4998C66.6839 30.8448 67.1854 30.9007 67.5291 30.6247L71.5134 27.4247ZM67.8281 34.8C67.8281 34.3582 68.1849 34 68.625 34H74.2031C74.6432 34 75 34.3582 75 34.8C75 35.2418 74.6432 35.6 74.2031 35.6H68.625C68.1849 35.6 67.8281 35.2418 67.8281 34.8ZM49.5 34C49.0599 34 48.7031 34.3582 48.7031 34.8C48.7031 35.2418 49.0599 35.6 49.5 35.6H55.0781C55.5182 35.6 55.875 35.2418 55.875 34.8C55.875 34.3582 55.5182 34 55.0781 34H49.5ZM52.8621 26.3002C53.137 25.9552 53.6385 25.8993 53.9822 26.1753L57.9666 29.3753C58.3102 29.6513 58.3659 30.1547 58.091 30.4998C57.8161 30.8448 57.3146 30.9007 56.9709 30.6247L52.9866 27.4247C52.6429 27.1487 52.5872 26.6453 52.8621 26.3002ZM67.5291 38.9753C67.1854 38.6993 66.6839 38.7552 66.409 39.1002C66.1341 39.4453 66.1898 39.9487 66.5334 40.2247L70.5178 43.4247C70.8615 43.7007 71.3629 43.6448 71.6379 43.2998C71.9128 42.9547 71.8571 42.4513 71.5134 42.1753L67.5291 38.9753ZM59.3076 30.9605C59.5487 30.7786 59.8716 30.7489 60.1416 30.8838L62.2497 31.9375L64.3541 30.8841C64.6239 30.749 64.9466 30.7784 65.1878 30.96C65.4291 31.1417 65.5475 31.4444 65.4938 31.7423L65.1024 33.9159L66.7741 35.4612C67.0011 35.6711 67.0871 35.9936 66.9947 36.2891C66.9024 36.5847 66.6485 36.8002 66.3428 36.8423L63.9963 37.1658L62.9568 39.1696C62.8195 39.4341 62.5471 39.6 62.25 39.6C61.9529 39.6 61.6805 39.4341 61.5432 39.1696L60.5037 37.1658L58.1572 36.8423C57.8515 36.8002 57.5976 36.5847 57.5053 36.2891C57.4129 35.9936 57.4989 35.6711 57.7259 35.4612L59.3971 33.9164L59.0025 31.7435C58.9484 31.4456 59.0665 31.1425 59.3076 30.9605ZM60.8558 33.0281L61.0437 34.063C61.0927 34.3329 61.0006 34.6091 60.7995 34.795L60.0496 35.4882L61.1286 35.6369C61.3845 35.6722 61.6076 35.8299 61.7269 36.0599L62.25 37.0682L62.7731 36.0599C62.8924 35.8299 63.1155 35.6722 63.3714 35.6369L64.4504 35.4882L63.7005 34.795C63.4997 34.6094 63.4075 34.3337 63.4561 34.0641L63.6427 33.0281L62.6056 33.5473C62.3818 33.6593 62.1187 33.6594 61.8948 33.5475L60.8558 33.0281ZM27.5921 32.6748C27.3919 32.5638 27.1461 32.5772 26.959 32.7094C26.772 32.8416 26.6765 33.0694 26.7131 33.296L26.9459 34.7373L25.9629 35.7487C25.8065 35.9096 25.7528 36.1448 25.8238 36.3581C25.8948 36.5713 26.0786 36.7267 26.3 36.7608L27.6353 36.9665L28.2406 38.2558C28.3394 38.4661 28.5502 38.6002 28.7818 38.6C29.0134 38.5998 29.224 38.4653 29.3224 38.2548L29.9242 36.9665L31.2623 36.7609C31.4839 36.7268 31.6678 36.5712 31.7388 36.3577C31.8098 36.1443 31.7558 35.9089 31.599 35.7481L30.6135 34.7373L30.8492 33.2973C30.8863 33.0704 30.7911 32.8423 30.604 32.7097C30.4169 32.5772 30.1708 32.5637 29.9704 32.6748L28.7812 33.3344L27.5921 32.6748ZM28.1741 34.8438L28.0897 34.3218L28.4922 34.5451C28.6721 34.6448 28.8904 34.6448 29.0703 34.5451L29.4699 34.3234L29.385 34.8426C29.3541 35.0311 29.4145 35.223 29.5476 35.3595L29.9299 35.7516L29.4281 35.8287C29.2311 35.859 29.062 35.9859 28.9774 36.167L28.7799 36.5898L28.581 36.166C28.4962 35.9854 28.3275 35.859 28.131 35.8287L27.6301 35.7516L28.0119 35.3589C28.1442 35.2227 28.2044 35.0316 28.1741 34.8438Z" fill="white"/>
</svg>
