<svg width="100" height="100" viewBox="0 0 100 100" fill="none" xmlns="http://www.w3.org/2000/svg">
<circle cx="50" cy="50" r="50" fill="#688DBC"/>
<path fill-rule="evenodd" clip-rule="evenodd" d="M46.8 22C46.5129 22 46.2341 22.0962 46.0085 22.2731C45.7839 22.4493 45.6249 22.6954 45.5569 22.9719L45.5561 22.9753L44.825 25.8957C44.6473 26.5797 44.2906 27.2045 43.7914 27.7061C43.2914 28.2085 42.6665 28.5693 41.9807 28.7516C41.2949 28.9339 40.5728 28.9312 39.8884 28.7437C39.2042 28.5563 38.5823 28.191 38.0863 27.6852L38.0862 27.6851L38.0857 27.6846L35.9878 25.5397C35.7908 25.3334 35.53 25.1986 35.2469 25.1572C34.9607 25.1152 34.6687 25.1712 34.4185 25.3158C34.1683 25.4605 33.9747 25.6853 33.8692 25.9535C33.7648 26.2188 33.7526 26.5111 33.8344 26.7839L34.6629 29.6747C34.8585 30.358 34.8672 31.0811 34.6883 31.7689C34.5093 32.4568 34.1492 33.0844 33.6451 33.5868C33.1411 34.0892 32.5116 34.4482 31.8217 34.6265C31.1318 34.8049 30.4067 34.7962 29.7213 34.6013L29.7198 34.6008L26.7933 33.775C26.5197 33.6938 26.2267 33.7061 25.9607 33.81C25.6914 33.9153 25.4659 34.1083 25.3209 34.3576C25.1758 34.6069 25.1198 34.8978 25.1618 35.1828C25.2034 35.4647 25.3385 35.7246 25.5455 35.921L27.6971 38.0122L27.6973 38.0124C28.205 38.5069 28.5716 39.1271 28.7597 39.8094C28.9479 40.4918 28.9506 41.2118 28.7677 41.8957C28.5847 42.5795 28.2227 43.2025 27.7188 43.7008C27.2148 44.1992 26.587 44.555 25.8998 44.7318L22.9717 45.483C22.6954 45.5513 22.4499 45.7094 22.2739 45.9324C22.0964 46.1572 22 46.4349 22 46.7209C22 47.0069 22.0964 47.2846 22.2739 47.5094C22.4506 47.7332 22.6974 47.8917 22.975 47.9596L22.9785 47.9605L25.9052 48.6884L25.9081 48.6892C26.5942 48.8663 27.2209 49.2218 27.7242 49.7195C28.2281 50.2178 28.5901 50.8408 28.7731 51.5246C28.956 52.2084 28.9532 52.9284 28.7651 53.6109C28.577 54.2933 28.2103 54.9135 27.7025 55.4081L25.5509 57.4992C25.3439 57.6957 25.2088 57.9556 25.1672 58.2375C25.1252 58.5225 25.1812 58.8134 25.3263 59.0627C25.4713 59.312 25.6968 59.505 25.9661 59.6102C26.2324 59.7143 26.526 59.7265 26.7999 59.6449L29.6997 58.819C30.3851 58.6241 31.1103 58.6154 31.8001 58.7938C32.49 58.9721 33.1196 59.3311 33.6236 59.8335C34.1276 60.3359 34.4878 60.9635 34.6667 61.6514C34.8457 62.3392 34.8369 63.0623 34.6414 63.7456L34.6414 63.7457L33.8117 66.6455L33.8113 66.647C33.7324 66.9209 33.7479 67.2132 33.8552 67.4774C33.9627 67.742 34.1562 67.9631 34.4048 68.1052C34.6534 68.2473 34.9427 68.3021 35.2263 68.2609C35.5078 68.2199 35.7675 68.0867 35.9645 67.8824L38.0641 65.7357L38.4719 63.5047L38.4724 63.5044L38.0647 65.7351C38.5607 65.2293 39.1827 64.864 39.8668 64.6766C40.5512 64.4891 41.2733 64.4864 41.9591 64.6687C42.6449 64.851 43.2699 65.2118 43.7698 65.7142C44.269 66.2158 44.6258 66.8406 44.8035 67.5247L44.8042 67.5276L45.5345 70.445L45.5353 70.4483C45.6033 70.7249 45.7623 70.9709 45.9869 71.1471C46.2125 71.3241 46.4913 71.4203 46.7784 71.4203C47.0656 71.4203 47.3443 71.3241 47.5699 71.1471C47.7946 70.9709 47.9536 70.7249 48.0215 70.4483L48.0223 70.445L48.7542 67.5214L48.755 67.5184C48.9008 66.926 49.1824 66.3755 49.5777 65.9101C49.9362 65.4881 50.3793 65.1464 50.8777 64.9067C51.6074 71.7052 57.3831 77 64.4 77C71.9111 77 78 70.9331 78 63.4493C78 56.3314 72.4921 50.4954 65.4913 49.9415C65.5519 49.9002 65.612 49.8603 65.6726 49.8211C66.157 49.5077 66.6764 49.237 67.7796 48.6674L70.6215 47.9605L70.6245 47.9597C70.9023 47.8919 71.1493 47.7334 71.3261 47.5094C71.5036 47.2845 71.6 47.0068 71.6 46.7209C71.6 46.4349 71.5036 46.1572 71.3261 45.9324C71.1493 45.7084 70.9023 45.5499 70.6245 45.4821L70.6215 45.4813L67.6948 44.7533L67.692 44.7526C67.0058 44.5755 66.3791 44.22 65.8759 43.7223C65.3719 43.224 65.0099 42.601 64.827 41.9172C64.644 41.2333 64.6468 40.5133 64.8349 39.8309C65.023 39.1485 65.3898 38.5283 65.8975 38.0337L68.0507 35.941C68.2558 35.7447 68.3895 35.4858 68.4305 35.2053C68.4719 34.9229 68.4169 34.6347 68.2745 34.387C68.132 34.1393 67.9102 33.9463 67.6446 33.8391C67.3794 33.7321 67.0859 33.7167 66.8109 33.7953L66.8094 33.7958L63.9003 34.6228L63.9003 34.6228C63.2149 34.8177 62.4897 34.8264 61.7999 34.648C61.11 34.4697 60.4804 34.1107 59.9764 33.6083C59.4724 33.1059 59.1123 32.4783 58.9333 31.7904C58.7544 31.1027 58.7631 30.3797 58.9585 29.6965L58.9586 29.6962L59.7872 26.8054C59.8689 26.5326 59.8568 26.2403 59.7524 25.975C59.6469 25.7068 59.4533 25.482 59.2031 25.3373C58.9529 25.1927 58.6609 25.1367 58.3747 25.1787C58.0916 25.2201 57.8309 25.3549 57.6338 25.5612L55.5359 27.7061L55.5353 27.7066L55.5353 27.7067C55.0393 28.2125 54.4174 28.5778 53.7332 28.7652C53.0488 28.9527 52.3267 28.9554 51.6409 28.7731C50.9551 28.5908 50.3301 28.23 49.8302 27.7276C49.3305 27.2255 48.9736 26.6 48.7961 25.9152L48.7958 25.9142L48.0425 22.9695C47.9742 22.6939 47.8155 22.4488 47.5915 22.2731C47.3659 22.0962 47.0871 22 46.8 22ZM44.7851 28.9668L42.6738 40.5179C42.9588 40.399 43.2717 40.3333 43.6 40.3333C44.9255 40.3333 46 41.404 46 42.7246C46 44.0453 44.9255 45.1159 43.6 45.1159C42.9622 45.1159 42.3825 44.868 41.9526 44.4636L38.4724 63.5044C38.7826 63.3537 39.1073 63.2313 39.4426 63.1395C40.4007 62.877 41.4115 62.8732 42.3716 63.1284C43.3316 63.3836 44.2062 63.8886 44.9059 64.5917C45.6056 65.2947 46.1052 66.1705 46.3535 67.1293L46.3551 67.1356L46.3551 67.1356L46.7784 68.8267L47.201 67.1386L47.2013 67.1375C47.4061 66.3063 47.8015 65.5336 48.3564 64.8803C48.9116 64.2266 49.6113 63.7103 50.4005 63.3718C50.5312 63.3157 50.6686 63.2971 50.8007 63.3111C50.8697 56.4277 56.0896 50.7732 62.8035 49.9909C63.7266 49.2552 64.244 48.8446 64.8011 48.4841C65.371 48.1154 65.977 47.8025 67.0837 47.2312L67.1267 47.2089C67.1821 47.1804 67.2406 47.1583 67.301 47.1433L68.9992 46.7209L67.301 46.2985L67.2948 46.2969L67.2948 46.2969C66.3327 46.0494 65.454 45.5513 64.7487 44.8538C64.0435 44.1564 63.5369 43.2846 63.2809 42.3277C63.025 41.3709 63.0288 40.3635 63.292 39.4087C63.5553 38.4538 64.0684 37.5859 64.779 36.8937L64.7796 36.8931L66.034 35.674L64.3393 36.1558L64.3393 36.1558C63.3796 36.4287 62.3641 36.4409 61.398 36.1911C60.432 35.9414 59.5505 35.4387 58.8448 34.7353C58.1392 34.0319 57.635 33.1533 57.3845 32.1905C57.134 31.2276 57.1462 30.2156 57.4199 29.259L57.42 29.2587L57.9045 27.5686L56.6811 28.8193L56.6805 28.82C55.9862 29.5283 55.1154 30.0399 54.1574 30.3023C53.1993 30.5648 52.1885 30.5686 51.2284 30.3134C50.2684 30.0582 49.3938 29.5532 48.6941 28.8501C47.9944 28.1471 47.4948 27.2713 47.2465 26.3125L47.2459 26.3102L46.8034 24.5801L46.3766 26.2847L46.3751 26.291L46.3751 26.291C46.1268 27.2498 45.6272 28.1256 44.9275 28.8286C44.8808 28.8756 44.8333 28.9216 44.7851 28.9668ZM44.785 28.9668C44.1106 29.598 43.289 30.0538 42.3931 30.2919C41.4331 30.5471 40.4223 30.5433 39.4642 30.2808C38.5062 30.0184 37.6354 29.5068 36.941 28.7985L36.9404 28.7978L35.7171 27.5471L36.2015 29.2372L36.2016 29.2375C36.4753 30.1941 36.4876 31.2061 36.2371 32.169C35.9866 33.1318 35.4824 34.0104 34.7768 34.7138C34.0711 35.4172 33.1896 35.9199 32.2235 36.1696C31.2577 36.4193 30.2425 36.4072 29.283 36.1345L29.2822 36.1343L27.5547 35.6468L28.815 36.8716L28.8156 36.8722C29.5262 37.5644 30.0394 38.4323 30.3026 39.3872C30.5658 40.342 30.5696 41.3494 30.3137 42.3062C30.0577 43.2631 29.5512 44.1349 28.8459 44.8323C28.1406 45.5298 27.2619 46.0279 26.2999 46.2754L26.2993 46.2755L24.5818 46.7161L26.299 47.1433L26.3052 47.1449L26.3052 47.1449C27.2673 47.3924 28.146 47.8905 28.8513 48.5879C29.5566 49.2854 30.0631 50.1572 30.3191 51.114C30.575 52.0708 30.5712 53.0783 30.308 54.0331C30.0447 54.988 29.5316 55.8559 28.821 56.548L28.8204 56.5486L27.5647 57.769L29.2603 57.2861L29.2607 57.286C30.2204 57.0131 31.2359 57.0009 32.202 57.2507C33.1681 57.5004 34.0495 58.003 34.7552 58.7065C35.4609 59.4099 35.965 60.2885 36.2155 61.2513C36.466 62.2141 36.4538 63.2262 36.1801 64.1827L36.1801 64.1828L35.6968 65.8718L36.9189 64.6224L36.9195 64.6218C37.3706 64.1616 37.8962 63.7844 38.4719 63.5047L41.9524 44.4634C41.4891 44.0275 41.2 43.4097 41.2 42.7246C41.2 41.7311 41.8081 40.8792 42.6736 40.518L44.785 28.9668ZM44.785 28.9668L44.7851 28.9668L46.0085 22.2731L44.785 28.9668ZM42.8 42.7246C42.8 42.2844 43.1582 41.9275 43.6 41.9275C44.0418 41.9275 44.4 42.2844 44.4 42.7246C44.4 43.1649 44.0418 43.5217 43.6 43.5217C43.1582 43.5217 42.8 43.1649 42.8 42.7246ZM52.4 63.4493C52.4 56.8459 57.7726 51.4928 64.4 51.4928C71.0274 51.4928 76.4 56.8459 76.4 63.4493C76.4 70.0527 71.0274 75.4058 64.4 75.4058C57.7726 75.4058 52.4 70.0527 52.4 63.4493ZM51.6 49.8986C51.1582 49.8986 50.8 50.2554 50.8 50.6957C50.8 51.1359 51.1582 51.4928 51.6 51.4928C52.0418 51.4928 52.4 51.1359 52.4 50.6957C52.4 50.2554 52.0418 49.8986 51.6 49.8986ZM49.2 50.6957C49.2 49.375 50.2745 48.3043 51.6 48.3043C52.9255 48.3043 54 49.375 54 50.6957C54 52.0163 52.9255 53.087 51.6 53.087C50.2745 53.087 49.2 52.0163 49.2 50.6957ZM59.6 68.2319C59.6 67.7917 59.9582 67.4348 60.4 67.4348H62V56.2754C62 55.8351 62.3582 55.4783 62.8 55.4783C63.2418 55.4783 63.6 55.8351 63.6 56.2754V67.4348H65.2C65.6418 67.4348 66 67.7917 66 68.2319C66 68.6721 65.6418 69.029 65.2 69.029H63.6V72.2174C63.6 72.6576 63.2418 73.0145 62.8 73.0145C62.3582 73.0145 62 72.6576 62 72.2174V69.029H60.4C59.9582 69.029 59.6 68.6721 59.6 68.2319ZM53.7657 40.5668C54.0781 40.8781 54.0781 41.3828 53.7657 41.6941L42.5657 52.8535C42.2533 53.1648 41.7467 53.1648 41.4343 52.8535C41.1219 52.5422 41.1219 52.0375 41.4343 51.7262L52.6343 40.5668C52.9467 40.2555 53.4533 40.2555 53.7657 40.5668ZM65.2 55.4783C64.7582 55.4783 64.4 55.8351 64.4 56.2754C64.4 56.7156 64.7582 57.0725 65.2 57.0725H67.1822C67.4115 57.0725 67.6953 57.2019 67.9552 57.5786C68.2145 57.9544 68.4 58.5199 68.4 59.1884V61.3224C68.4 61.9878 68.2146 62.5576 67.9543 62.9385C67.6921 63.3222 67.4099 63.4493 67.1911 63.4493H65.2C64.7582 63.4493 64.4 63.8061 64.4 64.2464C64.4 64.6866 64.7582 65.0435 65.2 65.0435H67.1911C68.0923 65.0435 68.8146 64.5122 69.2768 63.8358C69.741 63.1565 70 62.2644 70 61.3224V59.1884C70 58.2439 69.7411 57.353 69.2737 56.6755C68.8069 55.9989 68.0818 55.4783 67.1822 55.4783H65.2Z" fill="white"/>
</svg>
