<svg width="100" height="100" viewBox="0 0 100 100" fill="none" xmlns="http://www.w3.org/2000/svg">
<circle cx="50" cy="50" r="50" fill="#688DBC"/>
<path fill-rule="evenodd" clip-rule="evenodd" d="M37.1458 31C37.1258 31 37.1057 31.0007 37.0857 31.0021C36.5124 31.0414 36.0519 31.3503 35.7629 31.7419C35.4772 32.1289 35.3447 32.6057 35.3581 33.0709V64.0741C35.3581 64.4627 35.7098 64.7778 36.1438 64.7778H51.7548C52.1887 64.7778 52.5405 64.4627 52.5405 64.0741C52.5405 63.6854 52.1887 63.3704 51.7548 63.3704H36.9295V33.0612C36.9295 33.0541 36.9294 33.047 36.9291 33.0398C36.9218 32.8234 36.9867 32.636 37.0737 32.5181C37.1333 32.4374 37.1814 32.4139 37.2 32.4074H64.9428C64.9615 32.4139 65.0096 32.4374 65.0691 32.5181C65.1561 32.636 65.2211 32.8234 65.2137 33.0398L65.2134 33.0542L65.2134 33.0612V63.3704H64.2889C63.855 63.3704 63.5032 63.6854 63.5032 64.0741C63.5032 64.4627 63.855 64.7778 64.2889 64.7778H65.9991C66.433 64.7778 66.7848 64.4627 66.7848 64.0741V33.071C66.7981 32.6058 66.6656 32.1289 66.38 31.7419C66.0909 31.3503 65.6305 31.0414 65.0571 31.0021C65.0371 31.0007 65.0171 31 64.9971 31H37.1458ZM58.1513 60.5556C57.2983 60.5556 56.4611 60.7618 55.729 61.1526C55.0261 61.5279 54.4452 62.0599 54.0435 62.696C54.0235 62.7208 54.0051 62.7471 53.9884 62.7748C53.6052 63.4115 53.4126 64.1257 53.4296 64.8484C53.4443 65.9625 53.9549 67.025 54.8479 67.803C55.2906 68.1887 55.8139 68.4927 56.388 68.6979C56.9621 68.9032 57.5759 69.0057 58.1942 68.9998C58.8126 68.9938 59.4237 68.8795 59.9927 68.6632C60.5617 68.4469 61.0776 68.1328 61.5107 67.7387C61.9439 67.3446 62.2859 66.8781 62.517 66.3658C62.7472 65.8555 62.8627 65.3098 62.8569 64.7597C62.8612 64.0686 62.673 63.3875 62.3094 62.7773L62.3084 62.7756C61.9055 62.104 61.3055 61.5434 60.5735 61.1526C59.8414 60.7618 59.0042 60.5556 58.1513 60.5556ZM55.0007 64.8214C54.9896 64.3661 55.1038 63.9155 55.3331 63.5088C55.3494 63.4876 55.3646 63.4653 55.3786 63.442C55.6462 62.9959 56.0453 62.6223 56.5336 62.3616C57.022 62.1009 57.5811 61.963 58.1513 61.963C58.7214 61.963 59.2806 62.1009 59.769 62.3616C60.2572 62.6222 60.6561 62.9953 60.9236 63.441C61.1648 63.8461 61.2891 64.298 61.2855 64.7561L61.2855 64.7687C61.29 65.135 61.2134 65.4986 61.06 65.8387C60.9066 66.1788 60.6793 66.489 60.3909 66.7513C60.1025 67.0137 59.7586 67.2232 59.3787 67.3676C58.9989 67.512 58.5906 67.5884 58.1773 67.5924C57.764 67.5964 57.354 67.5279 56.9706 67.3908C56.5873 67.2538 56.2384 67.051 55.9437 66.7942C55.3485 66.2756 55.0099 65.5687 55.0009 64.8292H55.0009L55.0007 64.8214ZM25.7901 52.4473C25.933 52.2384 26.1867 52.1111 26.4602 52.1111H33C33.4339 52.1111 33.7857 52.4262 33.7857 52.8148C33.7857 53.2035 33.4339 53.5185 33 53.5185H26.9003L23.5714 58.3859V63.3704H23.9394C24.3733 63.3704 24.7251 63.6854 24.7251 64.0741C24.7251 64.4627 24.3733 64.7778 23.9394 64.7778H22.7857C22.3518 64.7778 22 64.4627 22 64.0741V58.1875C22 58.0578 22.04 57.9305 22.1157 57.8199L25.7901 52.4473ZM29.8576 60.5556C29.0071 60.5556 28.1725 60.7616 27.4422 61.1519C26.7123 61.5419 26.1127 62.1013 25.7086 62.772C25.321 63.4153 25.1264 64.1376 25.1439 64.8683C25.1615 65.5991 25.3905 66.3133 25.8086 66.941C26.2268 67.5687 26.8196 68.0884 27.5293 68.4493C28.239 68.8103 29.0411 69 29.8571 69C30.6732 69 31.4753 68.8103 32.185 68.4493C32.8946 68.0884 33.4875 67.5687 33.9056 66.941C34.3238 66.3133 34.5528 65.5991 34.5703 64.8683C34.5879 64.1376 34.3933 63.4153 34.0057 62.772C33.6018 62.1017 33.0034 61.5422 32.273 61.1519C31.5427 60.7616 30.7081 60.5556 29.8576 60.5556ZM28.2473 62.3605C28.7342 62.1003 29.2906 61.963 29.8576 61.963C30.4246 61.963 30.981 62.1003 31.4679 62.3605C31.9547 62.6207 32.3535 62.9936 32.6228 63.4405C32.8813 63.8693 33.011 64.3509 32.9993 64.8381C32.9876 65.3253 32.8349 65.8014 32.5561 66.2199C32.2774 66.6384 31.8821 66.9849 31.409 67.2255C30.9359 67.4661 30.4012 67.5926 29.8571 67.5926C29.3131 67.5926 28.7784 67.4661 28.3053 67.2255C27.8322 66.9849 27.4369 66.6384 27.1582 66.2199C26.8794 65.8014 26.7267 65.3253 26.715 64.8381C26.7033 64.3509 26.833 63.8693 27.0914 63.4405C27.3605 62.994 27.76 62.6209 28.2473 62.3605ZM67.5714 42.963C67.5714 42.5743 67.9232 42.2593 68.3571 42.2593H73.0714C73.5054 42.2593 73.8571 42.5743 73.8571 42.963C73.8571 43.3516 73.5054 43.6667 73.0714 43.6667H68.3571C67.9232 43.6667 67.5714 43.3516 67.5714 42.963ZM68.3571 45.7778C67.9232 45.7778 67.5714 46.0928 67.5714 46.4815C67.5714 46.8701 67.9232 47.1852 68.3571 47.1852H76.2143C76.6482 47.1852 77 46.8701 77 46.4815C77 46.0928 76.6482 45.7778 76.2143 45.7778H68.3571ZM67.5714 35.9259C67.5714 35.5373 67.9232 35.2222 68.3571 35.2222H74.6429C75.0768 35.2222 75.4286 35.5373 75.4286 35.9259C75.4286 36.3146 75.0768 36.6296 74.6429 36.6296H68.3571C67.9232 36.6296 67.5714 36.3146 67.5714 35.9259ZM68.3571 38.7407C67.9232 38.7407 67.5714 39.0558 67.5714 39.4444C67.5714 39.8331 67.9232 40.1481 68.3571 40.1481H76.2143C76.6482 40.1481 77 39.8331 77 39.4444C77 39.0558 76.6482 38.7407 76.2143 38.7407H68.3571ZM67.5714 50C67.5714 49.6114 67.9232 49.2963 68.3571 49.2963H72.2857C72.7197 49.2963 73.0714 49.6114 73.0714 50C73.0714 50.3886 72.7197 50.7037 72.2857 50.7037H68.3571C67.9232 50.7037 67.5714 50.3886 67.5714 50ZM68.3571 52.8148C67.9232 52.8148 67.5714 53.1299 67.5714 53.5185C67.5714 53.9072 67.9232 54.2222 68.3571 54.2222H76.2143C76.6482 54.2222 77 53.9072 77 53.5185C77 53.1299 76.6482 52.8148 76.2143 52.8148H68.3571ZM67.5714 57.037C67.5714 56.6484 67.9232 56.3333 68.3571 56.3333H73.0714C73.5054 56.3333 73.8571 56.6484 73.8571 57.037C73.8571 57.4257 73.5054 57.7407 73.0714 57.7407H68.3571C67.9232 57.7407 67.5714 57.4257 67.5714 57.037ZM68.3571 59.8519C67.9232 59.8519 67.5714 60.1669 67.5714 60.5556C67.5714 60.9442 67.9232 61.2593 68.3571 61.2593H76.2143C76.6482 61.2593 77 60.9442 77 60.5556C77 60.1669 76.6482 59.8519 76.2143 59.8519H68.3571Z" fill="white"/>
</svg>
