<svg width="40" height="40" viewBox="0 0 40 40" fill="none" xmlns="http://www.w3.org/2000/svg">
<path d="M19.1792 40H20.8448C29.8864 40 34.408 40 37.216 37.192C40.024 34.384 40 29.864 40 20.8448V19.1552C40 10.1376 40 5.61601 37.216 2.80801C34.432 8.04663e-06 29.8864 0 20.8448 0H19.1792C10.136 0 5.616 8.04663e-06 2.808 2.80801C-1.78814e-06 5.61601 0 10.1344 0 19.1552V20.8448C0 29.864 -1.78814e-06 34.384 2.808 37.192C5.616 40 10.136 40 19.1792 40Z" fill="white"/>
<path d="M21.4644 28.8399C12.4451 28.8399 6.97159 22.5823 6.75879 12.1838H11.3268C11.4692 19.8223 14.9444 23.0638 17.6084 23.7246V12.1838H21.9876V18.7742C24.5572 18.4895 27.2452 15.491 28.1508 12.1838H32.4564C31.7668 16.2527 28.8404 19.251 26.77 20.4878C28.8404 21.4878 32.1715 24.1054 33.4564 28.8399H28.722C27.722 25.675 25.2708 23.2238 21.9876 22.891V28.8399H21.4644Z" fill="black"/>
</svg>
